<svg width="64" height="64" fill="none" xmlns="http://www.w3.org/2000/svg"><path d="M20.224 34.985a1.624 1.624 0 0 1-1.553-2.103l1.401-4.548a1.624 1.624 0 1 1 3.105.956l-1.4 4.548a1.625 1.625 0 0 1-1.553 1.147Zm24.024-.07a1.624 1.624 0 0 0 1.083-2.026l-4.58-15.092C37.64 7.744 23.148 9.744 22.905 20.284c-.076 6.746 7.41 11.295 13.349 8.014a1.624 1.624 0 1 0-1.52-2.87c-3.82 2.127-8.628-.813-8.58-5.144.156-6.782 9.486-8.06 11.476-1.59l.01.032 4.583 15.106a1.625 1.625 0 0 0 2.026 1.082Zm3.663 17.858c-.822 0-1.636-.21-2.373-.623a4.841 4.841 0 0 1-2.31-2.93l-1.704-6.01c-1.498-6.298 7.37-8.794 9.38-2.647l1.704 6.01c.764 2.509-.83 5.355-3.367 6.015a4.896 4.896 0 0 1-1.33.185Zm-1.698-12.512a1.626 1.626 0 0 0-1.563 2.066l1.705 6.01c.118.42.391.766.77.978.378.212.817.264 1.234.146.418-.118.765-.39.977-.77.212-.378.264-.816.146-1.234l-1.704-6.01a1.629 1.629 0 0 0-1.565-1.186ZM16.09 52.773c-.444 0-.89-.061-1.33-.185-2.536-.659-4.13-3.507-3.367-6.013l1.705-6.014a4.878 4.878 0 0 1 6.012-3.365 4.879 4.879 0 0 1 3.367 6.012l-1.705 6.015c-.543 2.057-2.565 3.576-4.682 3.55Zm1.698-12.512c-.709 0-1.362.468-1.564 1.184l-1.705 6.014c-.117.416-.066.854.146 1.233.213.378.56.651.977.77.417.117.856.065 1.234-.147.379-.212.652-.558.77-.976l1.706-6.015a1.626 1.626 0 0 0-1.564-2.063Z" fill="#BCBDBF"/></svg>