<svg width="1920" height="459" fill="none" xmlns="http://www.w3.org/2000/svg"><path d="M728.129 237.236c-189.158 0-295.523-118.618-429.337-118.618H1.999V459H1920V0c-57.24 42.977-180.4 99.708-308.98 99.708-160.72 0-242.92-65.326-397.04-65.326-146.78 0-296.692 202.854-485.851 202.854Z" fill="url(#a)"/><path stroke="#CFCFCF" stroke-width="1.5" d="M404.54 3v375M775.347 3v375M1148.15 3v375M1517.96 3v375"/><path d="M1872.02 277.895c-99.57-37.354-171.8-58.072-297.71-29.614-172.8 39.054-233.98 87.474-387.74 87.474-146.44 0-314.432-90.913-460.139-90.913S400.605 340 298.097 340H1.999" stroke="#595959" stroke-width="3" stroke-linecap="round"/><path d="M1875.02 28c-75.73 34.5-139.48 72.609-267.76 72.609-160.35 0-242.36-65.261-396.12-65.261C1064.7 35.348 915.147 238 726.431 238S431.598 119.5 298.097 119.5H1.999" stroke="#FC5830" stroke-width="3" stroke-linecap="round"/><path d="M0 49h172.904c6.627 0 12 5.373 12 12v59H0V49Z" fill="#FC5830"/><path d="M48.802 77.779c.924 0 1.736.189 2.436.567.7.378 1.239.917 1.617 1.617.392.686.588 1.477.588 2.373 0 .882-.203 1.659-.61 2.331a4.061 4.061 0 0 1-1.68 1.575c-.713.364-1.54.546-2.477.546h-2.982c-.07 0-.105.035-.105.105v5.355c0 .07-.028.133-.084.189a.227.227 0 0 1-.168.063H42.88a.307.307 0 0 1-.19-.063.307.307 0 0 1-.062-.189V78.031c0-.07.02-.126.063-.168a.261.261 0 0 1 .189-.084h5.922Zm-.441 6.636c.644 0 1.162-.182 1.554-.546.392-.378.588-.868.588-1.47 0-.616-.196-1.113-.588-1.491-.392-.378-.91-.567-1.554-.567h-2.667c-.07 0-.105.035-.105.105v3.864c0 .07.035.105.105.105h2.667Zm16.898-4.326c0 .07-.028.133-.084.189a.227.227 0 0 1-.168.063H58.12c-.07 0-.105.035-.105.105v3.255c0 .07.035.105.105.105h4.515a.2.2 0 0 1 .168.084.2.2 0 0 1 .084.168v2.037c0 .07-.028.133-.084.189a.227.227 0 0 1-.168.063H58.12c-.07 0-.105.035-.105.105v3.402c0 .07.035.105.105.105h6.888a.2.2 0 0 1 .168.084.2.2 0 0 1 .084.168v2.037c0 .07-.028.133-.084.189a.227.227 0 0 1-.168.063h-9.702a.307.307 0 0 1-.189-.063.307.307 0 0 1-.063-.189V78.052c0-.07.021-.126.063-.168a.261.261 0 0 1 .19-.084h9.701a.2.2 0 0 1 .168.084.2.2 0 0 1 .084.168v2.037ZM75.171 92.5a.297.297 0 0 1-.294-.189l-2.625-5.817c-.028-.056-.07-.084-.126-.084h-1.953c-.07 0-.105.035-.105.105v5.733c0 .07-.028.133-.084.189a.227.227 0 0 1-.168.063h-2.457a.307.307 0 0 1-.19-.063.307.307 0 0 1-.062-.189V78.052c0-.07.02-.126.063-.168a.261.261 0 0 1 .189-.084h6.006c.896 0 1.68.182 2.352.546a3.747 3.747 0 0 1 1.575 1.554c.378.672.567 1.449.567 2.331 0 .952-.238 1.771-.714 2.457-.476.672-1.141 1.148-1.995 1.428-.07.028-.091.077-.063.147l2.856 5.943a.322.322 0 0 1 .042.126c0 .112-.077.168-.231.168H75.17Zm-4.998-12.159c-.07 0-.105.035-.105.105v3.591c0 .07.035.105.105.105h2.75c.589 0 1.065-.175 1.429-.525.378-.35.567-.805.567-1.365 0-.56-.19-1.015-.567-1.365-.364-.364-.84-.546-1.428-.546h-2.751Zm14.663 12.327c-1.12 0-2.1-.175-2.94-.525-.84-.364-1.49-.875-1.953-1.533-.448-.672-.672-1.449-.672-2.331v-.462c0-.07.021-.126.063-.168a.261.261 0 0 1 .19-.084h2.393a.2.2 0 0 1 .168.084.2.2 0 0 1 .084.168v.315c0 .56.26 1.036.777 1.428.518.378 1.218.567 2.1.567.742 0 1.295-.154 1.66-.462.363-.322.545-.714.545-1.176a1.14 1.14 0 0 0-.336-.84c-.224-.238-.532-.441-.924-.609-.378-.182-.987-.427-1.827-.735-.938-.322-1.736-.651-2.394-.987a4.973 4.973 0 0 1-1.638-1.365c-.434-.588-.65-1.309-.65-2.163 0-.84.216-1.575.65-2.205.434-.63 1.036-1.113 1.806-1.449.77-.336 1.66-.504 2.667-.504 1.064 0 2.01.189 2.835.567.84.378 1.491.91 1.953 1.596.476.672.714 1.456.714 2.352v.315c0 .07-.028.133-.084.189a.227.227 0 0 1-.168.063H87.44a.307.307 0 0 1-.189-.063.307.307 0 0 1-.063-.189v-.168c0-.588-.245-1.085-.735-1.491-.476-.42-1.134-.63-1.974-.63-.658 0-1.176.14-1.554.42-.364.28-.546.665-.546 1.155 0 .35.105.644.315.882.224.238.546.455.966.651a44.94 44.94 0 0 0 1.995.756c.994.364 1.771.686 2.331.966.574.28 1.085.7 1.533 1.26.462.546.693 1.26.693 2.142 0 1.316-.483 2.359-1.449 3.129-.966.756-2.275 1.134-3.927 1.134Zm12.469.063c-1.093 0-2.059-.224-2.899-.672a4.867 4.867 0 0 1-1.931-1.869c-.462-.812-.694-1.743-.694-2.793v-4.494c0-1.036.231-1.953.694-2.751a4.726 4.726 0 0 1 1.931-1.848c.84-.448 1.806-.672 2.898-.672 1.106 0 2.072.224 2.899.672a4.695 4.695 0 0 1 1.953 1.848c.462.798.693 1.715.693 2.751v4.494c0 1.05-.231 1.981-.693 2.793a4.793 4.793 0 0 1-1.953 1.89c-.827.434-1.793.651-2.898.651Zm0-2.541c.77 0 1.392-.245 1.868-.735.477-.49.715-1.141.715-1.953v-4.62c0-.812-.239-1.463-.715-1.953-.462-.504-1.085-.756-1.868-.756-.77 0-1.394.252-1.87.756-.462.49-.692 1.141-.692 1.953v4.62c0 .812.23 1.463.693 1.953.475.49 1.098.735 1.868.735Zm16.045-12.138c0-.07.021-.126.063-.168a.261.261 0 0 1 .189-.084h2.457a.2.2 0 0 1 .168.084.2.2 0 0 1 .084.168v14.196c0 .07-.028.133-.084.189a.227.227 0 0 1-.168.063h-2.373c-.14 0-.238-.056-.294-.168l-5.439-8.988c-.028-.042-.056-.056-.084-.042-.028 0-.042.028-.042.084l.042 8.862c0 .07-.028.133-.084.189a.227.227 0 0 1-.168.063h-2.457a.307.307 0 0 1-.189-.063.307.307 0 0 1-.063-.189V78.052c0-.07.021-.126.063-.168a.261.261 0 0 1 .189-.084h2.373c.14 0 .238.056.294.168l5.418 8.946c.028.042.056.063.084.063.028-.014.042-.049.042-.105l-.021-8.82ZM128.009 92.5c-.14 0-.231-.07-.273-.21l-.63-2.058c-.028-.056-.063-.084-.105-.084h-5.166c-.042 0-.077.028-.105.084l-.609 2.058c-.042.14-.133.21-.273.21h-2.667c-.084 0-.147-.021-.189-.063-.042-.056-.049-.133-.021-.231l4.536-14.196c.042-.14.133-.21.273-.21h3.297c.14 0 .231.07.273.21l4.536 14.196a.234.234 0 0 1 .021.105c0 .126-.077.189-.231.189h-2.667Zm-5.523-4.767c-.014.084.014.126.084.126h3.696c.084 0 .112-.042.084-.126l-1.89-6.237c-.014-.056-.035-.077-.063-.063-.028 0-.049.021-.063.063l-1.848 6.237Zm10.309 4.767a.307.307 0 0 1-.189-.063.307.307 0 0 1-.063-.189V78.052c0-.07.021-.126.063-.168a.261.261 0 0 1 .189-.084h2.457a.2.2 0 0 1 .168.084.2.2 0 0 1 .084.168v11.802c0 .07.035.105.105.105h6.867a.2.2 0 0 1 .168.084.2.2 0 0 1 .084.168v2.037c0 .07-.028.133-.084.189a.227.227 0 0 1-.168.063h-9.681Z" fill="#fff"/><path d="M299.841 87.999c0-6.628 5.373-12 12-12h37.967c6.628 0 12.001 5.372 12.001 12v16.999c0 6.628-5.373 12-12.001 12h-37.967c-6.627 0-12-5.372-12-12v-17Z" fill="#FC5830"/><path d="M310.624 99.416a.284.284 0 0 1-.175-.059.286.286 0 0 1-.059-.175V97.29c0-.065.02-.117.059-.156a.241.241 0 0 1 .175-.078h6.377c.065 0 .117.026.156.078a.185.185 0 0 1 .078.156v1.892a.242.242 0 0 1-.078.175.21.21 0 0 1-.156.059h-6.377Zm11.529 2.106c-.026.026-.033.052-.02.078.013.026.039.039.078.039h5.285c.065 0 .117.026.156.078a.185.185 0 0 1 .078.156v1.891a.244.244 0 0 1-.078.176.21.21 0 0 1-.156.058h-8.776a.283.283 0 0 1-.175-.058.287.287 0 0 1-.059-.176v-1.794c0-.117.039-.214.117-.292.637-.624 1.287-1.3 1.95-2.028.663-.741 1.08-1.203 1.249-1.385.364-.429.734-.838 1.111-1.228 1.183-1.313 1.775-2.288 1.775-2.925 0-.456-.163-.826-.488-1.112-.325-.299-.747-.448-1.267-.448-.52 0-.943.149-1.268.448-.325.286-.488.67-.488 1.15v.488a.242.242 0 0 1-.078.176.21.21 0 0 1-.156.058h-2.301a.284.284 0 0 1-.175-.058.286.286 0 0 1-.059-.176v-.916c.039-.703.26-1.32.663-1.853a3.825 3.825 0 0 1 1.599-1.248c.676-.286 1.431-.429 2.263-.429.923 0 1.722.176 2.398.527.689.338 1.216.799 1.58 1.384.377.585.565 1.235.565 1.95 0 .546-.136 1.105-.409 1.677-.273.572-.683 1.19-1.229 1.853a22.936 22.936 0 0 1-1.306 1.501c-.468.494-1.164 1.209-2.087 2.145l-.292.293Zm7.596 2.476a.283.283 0 0 1-.175-.058.287.287 0 0 1-.059-.176V90.582c0-.065.02-.117.059-.156a.241.241 0 0 1 .175-.078h2.282c.065 0 .117.026.156.078a.185.185 0 0 1 .078.156v5.46c0 .04.013.065.039.078.026 0 .052-.013.078-.039l4.504-5.597a.372.372 0 0 1 .293-.136h2.574c.104 0 .169.032.195.097.026.053.013.118-.039.196l-4.349 5.557c-.039.052-.045.098-.019.137l4.602 7.39a.814.814 0 0 1 .039.137c0 .091-.065.136-.195.136h-2.574c-.13 0-.221-.052-.273-.156l-3.471-5.616c-.013-.026-.033-.039-.059-.039-.026 0-.052.013-.078.04l-1.228 1.54a.3.3 0 0 0-.039.117v3.88a.244.244 0 0 1-.078.176.21.21 0 0 1-.156.058h-2.282Zm16.004.156c-1.001 0-1.885-.201-2.652-.604a4.468 4.468 0 0 1-1.794-1.677c-.416-.728-.624-1.567-.624-2.516V94.99c0-.949.208-1.788.624-2.516a4.297 4.297 0 0 1 1.794-1.677c.767-.403 1.651-.604 2.652-.604.988 0 1.859.195 2.613.585.767.39 1.359.923 1.775 1.599.429.663.643 1.404.643 2.223v.137a.242.242 0 0 1-.078.175.21.21 0 0 1-.156.059h-2.281a.287.287 0 0 1-.176-.059.285.285 0 0 1-.058-.175v-.059c0-.598-.208-1.099-.624-1.502-.416-.415-.969-.623-1.658-.623-.702 0-1.268.22-1.697.662-.416.43-.624.995-.624 1.697v4.524c0 .702.228 1.274.683 1.716.455.429 1.033.644 1.735.644.676 0 1.216-.176 1.619-.527.403-.364.605-.864.605-1.501v-.878c0-.065-.033-.097-.098-.097h-2.184a.287.287 0 0 1-.176-.059.285.285 0 0 1-.058-.175v-1.794a.21.21 0 0 1 .058-.156.244.244 0 0 1 .176-.078h4.758c.065 0 .117.026.156.078a.185.185 0 0 1 .078.156v2.574c0 .988-.208 1.846-.624 2.574a4.172 4.172 0 0 1-1.774 1.677c-.754.377-1.632.565-2.633.565Z" fill="#fff"/><path d="M268.856 256.998c0-6.627 5.373-12 12-12h56.957c6.628 0 12.001 5.373 12.001 12v18c0 6.627-5.373 12-12.001 12h-56.957c-6.627 0-12-5.373-12-12v-18Z" fill="#BCBDBF"/><path d="M281.134 268.916a.284.284 0 0 1-.175-.059.284.284 0 0 1-.059-.175v-1.892c0-.065.02-.117.059-.156a.241.241 0 0 1 .175-.078h6.377c.065 0 .117.026.156.078a.185.185 0 0 1 .078.156v1.892a.241.241 0 0 1-.078.175.211.211 0 0 1-.156.059h-6.377Zm12.523 4.797c-1.43 0-2.561-.397-3.393-1.19-.832-.806-1.248-1.898-1.248-3.276v-5.148c0-1.352.416-2.425 1.248-3.218.832-.793 1.963-1.189 3.393-1.189 1.43 0 2.561.396 3.393 1.189.845.793 1.268 1.866 1.268 3.218v5.148c0 1.378-.423 2.47-1.268 3.276-.832.793-1.963 1.19-3.393 1.19Zm0-2.36c.585 0 1.047-.175 1.385-.526.351-.364.526-.845.526-1.443v-5.363c0-.598-.175-1.073-.526-1.424-.338-.364-.8-.546-1.385-.546-.572 0-1.033.182-1.384.546-.338.351-.507.826-.507 1.424v5.363c0 .598.169 1.079.507 1.443.351.351.812.526 1.384.526Zm6.403 4.056c-.156 0-.228-.084-.215-.253l.644-4.524c.013-.143.097-.215.253-.215h1.989c.169 0 .234.085.195.254l-1.209 4.543c-.039.13-.13.195-.273.195h-1.384Zm13.526-8.131c.195.637.293 1.254.293 1.852 0 .663-.104 1.261-.312 1.794a3.903 3.903 0 0 1-1.58 1.989c-.754.481-1.638.722-2.652.722-.988 0-1.859-.234-2.613-.702a3.947 3.947 0 0 1-1.58-1.95 5.662 5.662 0 0 1-.292-1.073v-.039c0-.143.078-.214.234-.214h2.359c.13 0 .215.071.254.214a.694.694 0 0 0 .058.195c.026.052.046.098.059.137.13.338.325.598.585.78.26.182.565.273.916.273.364 0 .683-.098.956-.293a1.7 1.7 0 0 0 .604-.819c.13-.26.195-.598.195-1.014 0-.377-.058-.715-.175-1.014a1.311 1.311 0 0 0-.546-.78 1.684 1.684 0 0 0-.956-.273c-.364 0-.702.085-1.014.254-.312.169-.52.39-.624.663-.039.13-.123.195-.253.195h-2.399a.284.284 0 0 1-.175-.059.284.284 0 0 1-.059-.175v-7.859c0-.065.02-.117.059-.156a.241.241 0 0 1 .175-.078h8.054c.065 0 .117.026.156.078a.185.185 0 0 1 .078.156v1.891a.244.244 0 0 1-.078.176.21.21 0 0 1-.156.058h-5.441c-.065 0-.097.033-.097.098l-.02 2.886c0 .091.039.11.117.058.585-.377 1.261-.565 2.028-.565.91 0 1.703.234 2.379.702.69.455 1.177 1.085 1.463 1.892Zm2.166 6.22a.286.286 0 0 1-.176-.058.286.286 0 0 1-.058-.176v-13.182a.21.21 0 0 1 .058-.156.244.244 0 0 1 .176-.078h2.281c.065 0 .117.026.156.078a.185.185 0 0 1 .078.156v5.46c0 .039.013.065.039.078.026 0 .052-.013.078-.039l4.505-5.597a.368.368 0 0 1 .292-.136h2.575c.104 0 .169.032.195.097.026.052.013.117-.039.195l-4.349 5.558c-.039.052-.046.097-.02.136l4.603 7.391a.814.814 0 0 1 .039.137c0 .091-.065.136-.195.136h-2.575c-.13 0-.221-.052-.273-.156l-3.471-5.616c-.013-.026-.032-.039-.058-.039-.026 0-.052.013-.078.039l-1.229 1.541a.3.3 0 0 0-.039.117v3.88a.244.244 0 0 1-.078.176.21.21 0 0 1-.156.058h-2.281Zm16.003.156c-1.001 0-1.885-.201-2.652-.604a4.468 4.468 0 0 1-1.794-1.677c-.416-.728-.624-1.567-.624-2.516v-4.368c0-.949.208-1.788.624-2.516a4.297 4.297 0 0 1 1.794-1.677c.767-.403 1.651-.604 2.652-.604.988 0 1.859.195 2.614.585.767.39 1.358.923 1.774 1.599.429.663.644 1.404.644 2.223v.136a.244.244 0 0 1-.078.176.21.21 0 0 1-.156.058h-2.282a.283.283 0 0 1-.175-.058.281.281 0 0 1-.059-.176v-.058c0-.598-.208-1.099-.624-1.502-.416-.416-.969-.624-1.658-.624-.702 0-1.267.221-1.696.663-.416.429-.624.995-.624 1.697v4.524c0 .702.227 1.274.682 1.716.455.429 1.034.644 1.736.644.676 0 1.215-.176 1.618-.527.403-.364.605-.864.605-1.501v-.878c0-.065-.033-.097-.098-.097h-2.184a.284.284 0 0 1-.175-.059.284.284 0 0 1-.059-.175v-1.795c0-.065.02-.117.059-.156a.241.241 0 0 1 .175-.078h4.759c.065 0 .117.026.156.078a.185.185 0 0 1 .078.156v2.575c0 .988-.208 1.846-.624 2.574a4.175 4.175 0 0 1-1.775 1.677c-.754.377-1.632.565-2.633.565Z" fill="#595959"/><path d="M535.718 202.998c0-6.628 5.373-12 12.001-12h34.968c6.628 0 12.001 5.372 12.001 12v16.999c0 6.628-5.373 12.001-12.001 12.001h-34.968c-6.628 0-12.001-5.373-12.001-12.001v-16.999Z" fill="#BCBDBF"/><path d="M547.002 214.415a.284.284 0 0 1-.175-.059.284.284 0 0 1-.059-.175v-1.892c0-.065.02-.117.059-.156a.241.241 0 0 1 .175-.078h6.377c.065 0 .117.026.156.078a.185.185 0 0 1 .078.156v1.892a.241.241 0 0 1-.078.175.211.211 0 0 1-.156.059h-6.377Zm9.91-9.009a.582.582 0 0 1 .293-.059h2.359c.065 0 .117.026.156.078a.185.185 0 0 1 .078.156v13.183a.241.241 0 0 1-.078.175.211.211 0 0 1-.156.059h-2.281a.287.287 0 0 1-.176-.059.283.283 0 0 1-.058-.175v-10.687c0-.026-.013-.052-.039-.078-.026-.026-.052-.032-.078-.019l-1.931.526-.078.02c-.117 0-.175-.072-.175-.215l-.059-1.677c0-.13.059-.221.176-.273l2.047-.955Zm5.197 13.592a.284.284 0 0 1-.175-.059.284.284 0 0 1-.059-.175v-13.183c0-.065.02-.117.059-.156a.241.241 0 0 1 .175-.078h2.282c.065 0 .117.026.156.078a.185.185 0 0 1 .078.156v5.46c0 .039.013.065.039.078.026 0 .052-.013.078-.039l4.505-5.596a.369.369 0 0 1 .292-.137h2.574c.104 0 .169.033.195.098.026.052.013.117-.039.195l-4.349 5.557c-.039.052-.045.098-.019.137l4.602 7.391a.816.816 0 0 1 .039.136c0 .091-.065.137-.195.137h-2.574c-.13 0-.221-.052-.273-.156l-3.471-5.617c-.013-.026-.033-.039-.059-.039-.026 0-.052.013-.078.039l-1.228 1.541a.3.3 0 0 0-.039.117v3.881a.241.241 0 0 1-.078.175.211.211 0 0 1-.156.059h-2.282Zm16.004.156c-1.001 0-1.885-.202-2.652-.605a4.468 4.468 0 0 1-1.794-1.677c-.416-.728-.624-1.567-.624-2.516v-4.368c0-.949.208-1.787.624-2.515a4.297 4.297 0 0 1 1.794-1.677c.767-.403 1.651-.605 2.652-.605.988 0 1.859.195 2.613.585.767.39 1.359.923 1.775 1.599.429.663.643 1.404.643 2.223v.137a.241.241 0 0 1-.078.175.211.211 0 0 1-.156.059h-2.281a.287.287 0 0 1-.176-.059.283.283 0 0 1-.058-.175v-.059c0-.598-.208-1.098-.624-1.501-.416-.416-.969-.624-1.658-.624-.702 0-1.268.221-1.697.663-.416.429-.624.994-.624 1.696v4.524c0 .702.228 1.274.683 1.716.455.429 1.033.644 1.735.644.676 0 1.216-.176 1.619-.527.403-.364.605-.864.605-1.501v-.878c0-.065-.033-.097-.098-.097h-2.184a.287.287 0 0 1-.176-.059.283.283 0 0 1-.058-.175v-1.794a.21.21 0 0 1 .058-.156.244.244 0 0 1 .176-.078h4.758c.065 0 .117.026.156.078a.185.185 0 0 1 .078.156v2.574c0 .988-.208 1.846-.624 2.574a4.172 4.172 0 0 1-1.774 1.677c-.754.377-1.632.566-2.633.566Z" fill="#595959"/><path d="M1013.47 275.998c0-6.628 5.37-12 12-12h55.96c6.62 0 12 5.372 12 12v16.999c0 6.628-5.38 12.001-12 12.001h-55.96c-6.63 0-12-5.373-12-12.001v-16.999Z" fill="#BCBDBF"/><path d="M1025.25 287.415c-.07 0-.13-.02-.18-.059a.28.28 0 0 1-.06-.175v-1.892c0-.065.02-.117.06-.156a.24.24 0 0 1 .18-.078h6.37c.07 0 .12.026.16.078.05.039.08.091.08.156v1.892c0 .065-.03.123-.08.175a.214.214 0 0 1-.16.059h-6.37Zm12.52 4.797c-1.43 0-2.56-.396-3.39-1.189-.84-.806-1.25-1.899-1.25-3.277v-5.148c0-1.352.41-2.424 1.25-3.217.83-.793 1.96-1.19 3.39-1.19 1.43 0 2.56.397 3.39 1.19.85.793 1.27 1.865 1.27 3.217v5.148c0 1.378-.42 2.471-1.27 3.277-.83.793-1.96 1.189-3.39 1.189Zm0-2.359c.58 0 1.05-.176 1.38-.527.36-.364.53-.845.53-1.443v-5.363c0-.598-.17-1.072-.53-1.423-.33-.364-.8-.546-1.38-.546-.57 0-1.03.182-1.38.546-.34.351-.51.825-.51 1.423v5.363c0 .598.17 1.079.51 1.443.35.351.81.527 1.38.527Zm6.4 4.056c-.15 0-.23-.085-.21-.254l.64-4.524c.01-.143.1-.215.25-.215h1.99c.17 0 .24.085.2.254l-1.21 4.544c-.04.13-.13.195-.27.195h-1.39Zm13.53-8.132c.19.637.29 1.254.29 1.852 0 .663-.1 1.261-.31 1.794-.3.833-.83 1.496-1.58 1.99-.75.481-1.64.721-2.65.721-.99 0-1.86-.234-2.62-.702a3.996 3.996 0 0 1-1.58-1.95 6.059 6.059 0 0 1-.29-1.073v-.039c0-.143.08-.214.24-.214h2.36c.13 0 .21.071.25.214.01.078.03.143.06.195.02.052.04.098.06.137.13.338.32.598.58.78.26.182.57.273.92.273.36 0 .68-.097.95-.293.28-.195.48-.468.61-.819.13-.26.19-.598.19-1.014 0-.377-.06-.715-.17-1.014a1.325 1.325 0 0 0-.55-.78 1.666 1.666 0 0 0-.95-.273c-.37 0-.71.085-1.02.254-.31.169-.52.39-.62.663-.04.13-.13.195-.26.195h-2.39c-.07 0-.13-.02-.18-.059a.28.28 0 0 1-.06-.175v-7.859c0-.065.02-.117.06-.156a.24.24 0 0 1 .18-.078h8.05a.2.2 0 0 1 .16.078c.05.039.07.091.07.156v1.892a.24.24 0 0 1-.07.175.23.23 0 0 1-.16.059h-5.44c-.07 0-.1.032-.1.097l-.02 2.886c0 .091.04.111.12.059.58-.377 1.26-.566 2.03-.566.91 0 1.7.234 2.38.702.69.455 1.17 1.086 1.46 1.892Zm2.16 6.221c-.06 0-.12-.02-.17-.059a.28.28 0 0 1-.06-.175v-13.183c0-.065.02-.117.06-.156a.236.236 0 0 1 .17-.078h2.29c.06 0 .11.026.15.078.05.039.08.091.08.156v5.46c0 .039.01.065.04.078.02 0 .05-.013.08-.039l4.5-5.596a.378.378 0 0 1 .29-.137h2.58c.1 0 .17.033.19.098.03.052.02.117-.04.195l-4.34 5.557c-.04.052-.05.098-.02.137l4.6 7.391c.02.078.04.123.04.136 0 .091-.07.137-.2.137h-2.57c-.13 0-.22-.052-.27-.156l-3.48-5.617c-.01-.026-.03-.039-.05-.039a.1.1 0 0 0-.08.039l-1.23 1.541a.248.248 0 0 0-.04.117v3.881c0 .065-.03.123-.08.175a.207.207 0 0 1-.15.059h-2.29Zm16.01.156c-1 0-1.89-.202-2.65-.605a4.471 4.471 0 0 1-1.8-1.677c-.41-.728-.62-1.567-.62-2.516v-4.368c0-.949.21-1.787.62-2.515a4.3 4.3 0 0 1 1.8-1.677c.76-.403 1.65-.605 2.65-.605.99 0 1.86.195 2.61.585.77.39 1.36.923 1.78 1.599.42.663.64 1.404.64 2.223v.137c0 .065-.03.123-.08.175a.207.207 0 0 1-.15.059h-2.29c-.06 0-.12-.02-.17-.059a.28.28 0 0 1-.06-.175v-.059c0-.598-.21-1.098-.62-1.501-.42-.416-.97-.624-1.66-.624-.7 0-1.27.221-1.7.663-.41.429-.62.994-.62 1.696v4.524c0 .702.22 1.274.68 1.716.45.429 1.03.644 1.74.644.67 0 1.21-.176 1.61-.527.41-.364.61-.864.61-1.501v-.878c0-.065-.03-.097-.1-.097h-2.18c-.07 0-.13-.02-.18-.059a.28.28 0 0 1-.06-.175v-1.794c0-.065.02-.117.06-.156a.24.24 0 0 1 .18-.078h4.76c.06 0 .11.026.15.078.05.039.08.091.08.156v2.574c0 .988-.21 1.846-.62 2.574a4.193 4.193 0 0 1-1.78 1.677c-.75.377-1.63.566-2.63.566Z" fill="#595959"/><path d="M1769.08 220.998c0-6.627 5.37-12 12-12h34.96c6.63 0 12 5.373 12 12v18c0 6.627-5.37 12-12 12h-34.96c-6.63 0-12-5.373-12-12v-18Z" fill="#BCBDBF"/><path d="M1780.36 232.915a.304.304 0 0 1-.18-.058.35.35 0 0 1-.05-.176v-1.891a.25.25 0 0 1 .05-.156c.06-.052.11-.078.18-.078h6.38c.06 0 .11.026.15.078.05.039.08.091.08.156v1.891c0 .065-.03.124-.08.176a.206.206 0 0 1-.15.058h-6.38Zm9.91-9.009a.557.557 0 0 1 .29-.059h2.36c.07 0 .12.026.16.078.05.039.08.091.08.156v13.183c0 .065-.03.123-.08.175a.214.214 0 0 1-.16.059h-2.28c-.07 0-.12-.02-.18-.059a.347.347 0 0 1-.05-.175v-10.686c0-.026-.02-.052-.04-.078-.03-.026-.06-.033-.08-.02l-1.93.527-.08.019c-.12 0-.18-.071-.18-.214l-.05-1.678c0-.13.05-.221.17-.273l2.05-.955Zm5.2 13.592c-.07 0-.13-.02-.18-.059a.28.28 0 0 1-.06-.175v-13.183c0-.065.02-.117.06-.156a.24.24 0 0 1 .18-.078h2.28c.06 0 .12.026.15.078.06.039.08.091.08.156v5.461c0 .039.02.065.04.078.03 0 .05-.013.08-.039l4.5-5.597a.383.383 0 0 1 .3-.137h2.57c.1 0 .17.033.2.098.02.052.01.117-.04.195l-4.35 5.558c-.04.052-.05.097-.02.136l4.6 7.391c.03.078.04.123.04.136 0 .091-.07.137-.2.137h-2.57c-.13 0-.22-.052-.27-.156l-3.47-5.616c-.02-.026-.04-.039-.06-.039-.03 0-.05.013-.08.039l-1.23 1.54c-.02.052-.04.091-.04.117v3.881c0 .065-.02.123-.08.175-.03.039-.09.059-.15.059h-2.28Zm16 .156c-1 0-1.88-.202-2.65-.605a4.471 4.471 0 0 1-1.8-1.677c-.41-.728-.62-1.566-.62-2.515v-4.368c0-.949.21-1.788.62-2.516a4.3 4.3 0 0 1 1.8-1.677c.77-.403 1.65-.605 2.65-.605.99 0 1.86.195 2.61.585.77.39 1.36.923 1.78 1.6.43.663.64 1.404.64 2.223v.136c0 .065-.02.124-.08.176a.206.206 0 0 1-.15.058h-2.28a.284.284 0 0 1-.18-.058.282.282 0 0 1-.06-.176v-.058c0-.598-.21-1.099-.62-1.502-.42-.416-.97-.624-1.66-.624-.7 0-1.27.221-1.7.663-.41.429-.62.995-.62 1.697v4.524c0 .702.23 1.274.68 1.716.46.429 1.04.643 1.74.643.67 0 1.21-.175 1.62-.526.4-.364.6-.865.6-1.502v-.877c0-.065-.03-.098-.1-.098h-2.18a.304.304 0 0 1-.18-.058.273.273 0 0 1-.05-.176v-1.794c0-.065.01-.117.05-.156.06-.052.11-.078.18-.078h4.76c.06 0 .11.026.15.078.06.039.08.091.08.156v2.574c0 .988-.21 1.846-.62 2.574a4.193 4.193 0 0 1-1.78 1.677c-.75.377-1.63.566-2.63.566Z" fill="#595959"/><path d="M734.617 225c0-6.627 5.373-12 12.001-12h32.969c6.628 0 12.001 5.373 12.001 12v17c0 6.627-5.373 12-12.001 12h-32.969c-6.628 0-12.001-5.373-12.001-12v-17Z" fill="#FC5830"/><path d="M744.902 236.417a.283.283 0 0 1-.175-.058.287.287 0 0 1-.059-.176v-1.891c0-.065.02-.117.059-.156a.241.241 0 0 1 .175-.078h6.377c.065 0 .117.026.156.078a.185.185 0 0 1 .078.156v1.891a.244.244 0 0 1-.078.176.21.21 0 0 1-.156.058h-6.377Zm9.91-9.009a.579.579 0 0 1 .292-.058h2.36c.065 0 .117.026.156.078a.185.185 0 0 1 .078.156v13.182a.241.241 0 0 1-.078.175.211.211 0 0 1-.156.059h-2.282a.284.284 0 0 1-.175-.059.284.284 0 0 1-.059-.175V230.08c0-.026-.013-.052-.039-.078-.026-.026-.052-.033-.078-.02l-1.93.527-.078.019c-.117 0-.176-.071-.176-.214l-.058-1.677c0-.13.058-.221.175-.273l2.048-.956ZM760.009 241a.287.287 0 0 1-.176-.059.283.283 0 0 1-.058-.175v-13.182a.21.21 0 0 1 .058-.156.244.244 0 0 1 .176-.078h2.282c.065 0 .117.026.156.078a.185.185 0 0 1 .078.156v5.46c0 .039.013.065.039.078.026 0 .052-.013.078-.039l4.504-5.597a.37.37 0 0 1 .293-.136h2.574c.104 0 .169.032.195.097.026.052.013.117-.039.195l-4.349 5.558c-.039.052-.045.097-.019.136l4.602 7.391a.816.816 0 0 1 .039.136c0 .091-.065.137-.195.137h-2.574c-.13 0-.221-.052-.273-.156l-3.471-5.616c-.013-.026-.033-.039-.059-.039-.026 0-.052.013-.078.039l-1.228 1.54a.3.3 0 0 0-.039.117v3.881a.241.241 0 0 1-.078.175.211.211 0 0 1-.156.059h-2.282Zm16.004.156c-1.001 0-1.885-.202-2.652-.605a4.468 4.468 0 0 1-1.794-1.677c-.416-.728-.624-1.566-.624-2.515v-4.368c0-.949.208-1.788.624-2.516a4.297 4.297 0 0 1 1.794-1.677c.767-.403 1.651-.604 2.652-.604.988 0 1.859.195 2.613.585.767.39 1.358.923 1.774 1.599.429.663.644 1.404.644 2.223v.136a.244.244 0 0 1-.078.176.21.21 0 0 1-.156.058h-2.282a.283.283 0 0 1-.175-.058.287.287 0 0 1-.059-.176v-.058c0-.598-.208-1.099-.624-1.502-.416-.416-.968-.624-1.657-.624-.702 0-1.268.221-1.697.663-.416.429-.624.995-.624 1.697v4.524c0 .702.228 1.274.683 1.716.455.429 1.033.643 1.735.643.676 0 1.216-.175 1.619-.526.403-.364.604-.865.604-1.502v-.877c0-.065-.032-.098-.097-.098h-2.184a.286.286 0 0 1-.176-.058.286.286 0 0 1-.058-.176v-1.794a.21.21 0 0 1 .058-.156.244.244 0 0 1 .176-.078h4.758c.065 0 .117.026.156.078a.185.185 0 0 1 .078.156v2.574c0 .988-.208 1.846-.624 2.574a4.175 4.175 0 0 1-1.775 1.677c-.754.377-1.631.566-2.632.566Z" fill="#fff"/><path d="M1114.42 42c0-6.627 5.37-12 12-12h38.97c6.62 0 12 5.373 12 12v17c0 6.627-5.38 12-12 12h-38.97c-6.63 0-12-5.373-12-12V42Z" fill="#FC5830"/><path d="M1125.2 53.417c-.06 0-.12-.02-.17-.058a.28.28 0 0 1-.06-.176v-1.891c0-.065.02-.117.06-.156a.236.236 0 0 1 .17-.078h6.38a.2.2 0 0 1 .16.078c.05.039.07.09.07.156v1.891c0 .065-.02.124-.07.176a.23.23 0 0 1-.16.058h-6.38Zm17.63-1.365c.07 0 .12.026.16.078.05.04.08.091.08.156v1.97c0 .065-.03.123-.08.175a.214.214 0 0 1-.16.059h-.83c-.07 0-.1.032-.1.097v3.179c0 .065-.03.123-.08.175a.214.214 0 0 1-.16.059h-2.28c-.06 0-.12-.02-.17-.059a.28.28 0 0 1-.06-.175v-3.179c0-.065-.03-.097-.1-.097h-5.99c-.06 0-.12-.02-.17-.059a.28.28 0 0 1-.06-.175v-1.56c0-.078.02-.176.06-.293l3.51-7.878a.27.27 0 0 1 .27-.175h2.44c.09 0 .15.026.18.078.03.039.03.104 0 .195l-3.26 7.312a.105.105 0 0 0 0 .078c.01.026.03.04.06.04h2.96c.07 0 .1-.033.1-.098v-2.418c0-.065.02-.117.06-.156a.236.236 0 0 1 .17-.078h2.28c.07 0 .12.026.16.078.05.039.08.09.08.156v2.418c0 .065.03.097.1.097h.83Zm2.39 5.948c-.06 0-.12-.02-.17-.059a.28.28 0 0 1-.06-.175V44.584c0-.065.02-.117.06-.156a.236.236 0 0 1 .17-.078h2.28c.07 0 .12.026.16.078.05.039.08.09.08.156v5.46c0 .039.01.065.04.078.02 0 .05-.013.08-.04l4.5-5.596a.378.378 0 0 1 .29-.136h2.58c.1 0 .17.032.19.097.03.052.01.117-.04.195l-4.35 5.558c-.04.052-.04.097-.02.136l4.61 7.391c.02.078.04.123.04.137 0 .09-.07.136-.2.136h-2.57a.297.297 0 0 1-.28-.156l-3.47-5.616c-.01-.026-.03-.04-.06-.04-.02 0-.05.014-.07.04l-1.23 1.54a.248.248 0 0 0-.04.117v3.881c0 .065-.03.123-.08.175a.214.214 0 0 1-.16.059h-2.28Zm16.01.156c-1 0-1.89-.201-2.66-.605a4.508 4.508 0 0 1-1.79-1.677c-.42-.728-.62-1.566-.62-2.515V48.99c0-.95.2-1.788.62-2.516a4.335 4.335 0 0 1 1.79-1.677c.77-.403 1.66-.604 2.66-.604.98 0 1.86.195 2.61.585.77.39 1.36.923 1.77 1.599.43.663.65 1.404.65 2.223v.136c0 .065-.03.124-.08.176a.214.214 0 0 1-.16.058h-2.28c-.06 0-.12-.02-.17-.058a.28.28 0 0 1-.06-.176v-.058c0-.598-.21-1.099-.63-1.502-.41-.416-.96-.624-1.65-.624-.71 0-1.27.221-1.7.663-.42.43-.62.995-.62 1.697v4.524c0 .702.22 1.274.68 1.716.45.429 1.03.643 1.73.643.68 0 1.22-.175 1.62-.526.41-.364.61-.865.61-1.502v-.877c0-.065-.04-.098-.1-.098h-2.18c-.07 0-.13-.02-.18-.058a.28.28 0 0 1-.06-.176v-1.794c0-.065.02-.117.06-.156a.24.24 0 0 1 .18-.078h4.75c.07 0 .12.026.16.078.05.04.08.091.08.156v2.574c0 .988-.21 1.846-.63 2.574-.41.729-1 1.288-1.77 1.678-.75.377-1.63.565-2.63.565Z" fill="#fff"/><path d="M1477.23 85c0-6.627 5.37-12 12-12h37.97c6.63 0 12 5.373 12 12v18c0 6.627-5.37 12-12 12h-37.97c-6.63 0-12-5.373-12-12V85Z" fill="#FC5830"/><path d="M1488.01 96.917c-.06 0-.12-.02-.17-.058a.28.28 0 0 1-.06-.176v-1.891c0-.065.02-.117.06-.156a.236.236 0 0 1 .17-.078h6.38c.07 0 .12.026.16.078.05.039.07.09.07.156v1.891c0 .065-.02.124-.07.176a.214.214 0 0 1-.16.058h-6.38Zm16.29-1.93c.26.598.39 1.287.39 2.067 0 .702-.12 1.352-.35 1.95a3.833 3.833 0 0 1-1.58 1.95c-.73.468-1.59.702-2.59.702-.99 0-1.86-.247-2.62-.741a4.176 4.176 0 0 1-1.6-2.009 5.75 5.75 0 0 1-.31-1.638c0-.156.08-.234.24-.234h2.3c.15 0 .23.078.23.234.05.43.12.748.22.956.11.338.3.604.56.8.27.181.59.272.96.272.72 0 1.23-.318 1.5-.955.18-.39.27-.845.27-1.365 0-.611-.1-1.112-.29-1.502-.3-.61-.8-.916-1.5-.916-.15 0-.3.045-.45.136-.16.078-.35.195-.57.351a.244.244 0 0 1-.15.059c-.08 0-.14-.04-.18-.117l-1.15-1.619a.3.3 0 0 1-.04-.136c0-.078.03-.143.08-.195l3.1-2.71c.03-.027.03-.053.02-.079 0-.026-.02-.039-.06-.039h-4.58c-.07 0-.12-.02-.18-.058a.272.272 0 0 1-.05-.176v-1.891c0-.065.01-.117.05-.156.06-.052.11-.078.18-.078h8.13c.07 0 .12.026.16.078.05.039.07.09.07.156v2.145c0 .104-.04.201-.13.292l-2.56 2.34c-.02.026-.04.052-.04.078.02.026.05.04.1.04 1.13.22 1.94.89 2.42 2.008Zm2.46 6.513c-.07 0-.13-.02-.18-.059a.28.28 0 0 1-.06-.175V88.084c0-.065.02-.117.06-.156a.24.24 0 0 1 .18-.078h2.28a.2.2 0 0 1 .16.078c.05.039.07.09.07.156v5.46c0 .039.02.065.04.078.03 0 .05-.013.08-.04l4.51-5.596a.35.35 0 0 1 .29-.136h2.57c.11 0 .17.032.2.097.02.052.01.117-.04.195l-4.35 5.558c-.04.052-.05.097-.02.136l4.6 7.391c.03.078.04.123.04.136 0 .091-.06.137-.19.137h-2.58c-.13 0-.22-.052-.27-.156l-3.47-5.616c-.02-.026-.03-.04-.06-.04s-.05.014-.08.04l-1.23 1.54c-.02.052-.04.091-.04.117v3.881a.24.24 0 0 1-.07.175.23.23 0 0 1-.16.059h-2.28Zm16 .156c-1 0-1.88-.202-2.65-.605-.77-.403-1.37-.962-1.79-1.677-.42-.728-.63-1.566-.63-2.515V92.49c0-.95.21-1.788.63-2.516a4.218 4.218 0 0 1 1.79-1.677c.77-.403 1.65-.604 2.65-.604.99 0 1.86.195 2.61.585.77.39 1.36.923 1.78 1.599.43.663.64 1.404.64 2.223v.136c0 .065-.02.124-.08.176-.03.039-.09.058-.15.058h-2.28c-.07 0-.13-.02-.18-.058a.28.28 0 0 1-.06-.176v-.058c0-.598-.2-1.099-.62-1.502-.42-.416-.97-.624-1.66-.624-.7 0-1.27.221-1.69.663-.42.43-.63.995-.63 1.697v4.524c0 .702.23 1.274.68 1.716.46.429 1.04.643 1.74.643.68 0 1.21-.175 1.62-.526.4-.364.6-.865.6-1.502v-.877c0-.065-.03-.098-.1-.098h-2.18c-.06 0-.12-.02-.17-.058a.28.28 0 0 1-.06-.176v-1.794c0-.065.02-.117.06-.156a.236.236 0 0 1 .17-.078h4.76c.06 0 .12.026.15.078.06.04.08.091.08.156v2.574c0 .988-.21 1.846-.62 2.574a4.194 4.194 0 0 1-1.78 1.677c-.75.377-1.63.566-2.63.566Z" fill="#fff"/><path d="M1838.04 18c0-6.627 5.38-12 12-12h40.97c6.63 0 12 5.373 12 12v17c0 6.627-5.37 12-12 12h-40.97c-6.62 0-12-5.373-12-12V18Z" fill="#FC5830"/><path d="M1849.83 29.417c-.07 0-.13-.02-.18-.058a.28.28 0 0 1-.06-.176v-1.891c0-.065.02-.117.06-.156a.24.24 0 0 1 .18-.078h6.37c.07 0 .12.026.16.078.05.039.08.09.08.156v1.891c0 .065-.03.124-.08.176a.214.214 0 0 1-.16.058h-6.37Zm17.63-1.365c.06 0 .11.026.15.078.06.04.08.091.08.156v1.97c0 .065-.02.123-.08.175a.206.206 0 0 1-.15.059h-.84c-.07 0-.1.032-.1.097v3.179c0 .065-.02.123-.08.175a.206.206 0 0 1-.15.059h-2.28c-.07 0-.13-.02-.18-.059a.28.28 0 0 1-.06-.175v-3.179c0-.065-.03-.097-.1-.097h-5.98c-.07 0-.13-.02-.18-.059a.28.28 0 0 1-.06-.175v-1.56c0-.078.02-.176.06-.293l3.51-7.878c.05-.117.15-.175.28-.175h2.43c.09 0 .15.026.18.078.04.039.04.104 0 .195l-3.26 7.312a.105.105 0 0 0 0 .078c.01.026.03.04.06.04h2.96c.07 0 .1-.033.1-.098v-2.418c0-.065.02-.117.06-.156a.24.24 0 0 1 .18-.078h2.28c.06 0 .11.026.15.078.06.039.08.09.08.156v2.418c0 .065.03.097.1.097h.84Zm2.39 5.948c-.07 0-.13-.02-.18-.059a.28.28 0 0 1-.06-.175V20.584c0-.065.02-.117.06-.156a.24.24 0 0 1 .18-.078h2.28c.06 0 .11.026.15.078.06.039.08.09.08.156v5.46c0 .039.01.065.04.078.03 0 .05-.013.08-.04l4.5-5.596a.383.383 0 0 1 .3-.136h2.57c.1 0 .17.032.19.097.03.052.02.117-.03.195l-4.35 5.558c-.04.052-.05.097-.02.136l4.6 7.391c.03.078.04.123.04.137 0 .09-.07.136-.2.136h-2.57c-.13 0-.22-.052-.27-.156l-3.47-5.616c-.02-.026-.04-.04-.06-.04a.1.1 0 0 0-.08.04l-1.23 1.54a.248.248 0 0 0-.04.117v3.881c0 .065-.02.123-.08.175a.206.206 0 0 1-.15.059h-2.28Zm16 .156c-1 0-1.89-.201-2.65-.605a4.47 4.47 0 0 1-1.8-1.677c-.41-.728-.62-1.566-.62-2.515V24.99c0-.95.21-1.788.62-2.516a4.3 4.3 0 0 1 1.8-1.677c.76-.403 1.65-.604 2.65-.604.99 0 1.86.195 2.61.585.77.39 1.36.923 1.78 1.599.43.663.64 1.404.64 2.223v.136c0 .065-.03.124-.08.176a.206.206 0 0 1-.15.058h-2.29c-.06 0-.12-.02-.17-.058a.28.28 0 0 1-.06-.176v-.058c0-.598-.21-1.099-.62-1.502-.42-.416-.97-.624-1.66-.624-.7 0-1.27.221-1.7.663-.41.43-.62.995-.62 1.697v4.524c0 .702.23 1.274.68 1.716.46.429 1.03.643 1.74.643.67 0 1.21-.175 1.62-.526.4-.364.6-.865.6-1.502v-.877c0-.065-.03-.098-.1-.098h-2.18c-.07 0-.13-.02-.18-.058a.28.28 0 0 1-.06-.176v-1.794c0-.065.02-.117.06-.156a.24.24 0 0 1 .18-.078h4.76c.06 0 .11.026.15.078.05.04.08.091.08.156v2.574c0 .988-.21 1.846-.62 2.574a4.192 4.192 0 0 1-1.78 1.677c-.75.377-1.63.566-2.63.566Z" fill="#fff"/><path d="M0 270h178.901c6.627 0 12 5.373 12 12v59H0v-71Z" fill="#595959"/><path d="M43.483 313.5a.307.307 0 0 1-.189-.063.307.307 0 0 1-.063-.189v-14.196c0-.07.021-.126.063-.168a.261.261 0 0 1 .19-.084h2.456a.2.2 0 0 1 .168.084.2.2 0 0 1 .084.168v14.196c0 .07-.028.133-.084.189a.227.227 0 0 1-.168.063h-2.457Zm13.497-14.448c0-.07.02-.126.063-.168a.261.261 0 0 1 .189-.084h2.457a.2.2 0 0 1 .168.084.2.2 0 0 1 .084.168v14.196c0 .07-.028.133-.084.189a.227.227 0 0 1-.168.063h-2.373c-.14 0-.238-.056-.294-.168l-5.44-8.988c-.027-.042-.055-.056-.083-.042-.028 0-.042.028-.042.084l.042 8.862c0 .07-.028.133-.084.189a.227.227 0 0 1-.168.063H48.79a.307.307 0 0 1-.19-.063.307.307 0 0 1-.062-.189v-14.196c0-.07.02-.126.063-.168a.261.261 0 0 1 .189-.084h2.373c.14 0 .238.056.294.168l5.418 8.946c.028.042.056.063.084.063.028-.014.042-.049.042-.105l-.021-8.82Zm5.443 14.448a.307.307 0 0 1-.19-.063.307.307 0 0 1-.062-.189v-14.196c0-.07.02-.126.063-.168a.261.261 0 0 1 .189-.084h5.25c1.05 0 1.967.189 2.75.567.799.364 1.415.882 1.849 1.554.434.672.65 1.449.65 2.331v5.796c0 .882-.216 1.659-.65 2.331-.434.672-1.05 1.197-1.848 1.575-.784.364-1.701.546-2.751.546h-5.25Zm2.709-2.646c0 .07.035.105.105.105h2.54c.645 0 1.163-.217 1.555-.651.406-.434.616-1.015.63-1.743v-4.83c0-.728-.203-1.309-.61-1.743-.391-.434-.923-.651-1.595-.651h-2.52c-.07 0-.105.035-.105.105v9.408Zm10.062 2.646a.307.307 0 0 1-.189-.063.307.307 0 0 1-.063-.189v-14.196c0-.07.021-.126.063-.168a.261.261 0 0 1 .189-.084h2.457a.2.2 0 0 1 .168.084.2.2 0 0 1 .084.168v14.196c0 .07-.028.133-.084.189a.227.227 0 0 1-.168.063h-2.457Zm8.96 0c-.14 0-.23-.07-.272-.21l-4.326-14.196-.021-.084c0-.14.077-.21.23-.21h2.647c.154 0 .252.07.294.21l2.793 10.248c.014.042.035.063.063.063.028 0 .049-.021.063-.063l2.75-10.248c.043-.14.14-.21.295-.21h2.583c.084 0 .147.028.189.084.042.056.049.126.02.21l-4.388 14.196c-.042.14-.133.21-.273.21h-2.646Zm9.2 0a.307.307 0 0 1-.189-.063.307.307 0 0 1-.063-.189v-14.196c0-.07.021-.126.063-.168a.261.261 0 0 1 .19-.084h2.456a.2.2 0 0 1 .168.084.2.2 0 0 1 .084.168v14.196c0 .07-.028.133-.084.189a.227.227 0 0 1-.168.063h-2.457Zm5.307 0a.307.307 0 0 1-.19-.063.307.307 0 0 1-.062-.189v-14.196c0-.07.02-.126.063-.168a.261.261 0 0 1 .189-.084h5.25c1.05 0 1.967.189 2.751.567.798.364 1.414.882 1.848 1.554.434.672.651 1.449.651 2.331v5.796c0 .882-.217 1.659-.651 2.331-.434.672-1.05 1.197-1.848 1.575-.784.364-1.701.546-2.751.546h-5.25Zm2.709-2.646c0 .07.035.105.105.105h2.541c.644 0 1.162-.217 1.554-.651.406-.434.616-1.015.63-1.743v-4.83c0-.728-.203-1.309-.609-1.743-.392-.434-.924-.651-1.596-.651h-2.52c-.07 0-.105.035-.105.105v9.408Zm15.144 2.814c-1.078 0-2.03-.21-2.856-.63a4.746 4.746 0 0 1-1.911-1.764c-.448-.77-.672-1.652-.672-2.646v-9.576c0-.07.021-.126.063-.168a.261.261 0 0 1 .189-.084h2.457a.2.2 0 0 1 .168.084.2.2 0 0 1 .084.168v9.597c0 .742.224 1.344.672 1.806.462.448 1.064.672 1.806.672s1.337-.224 1.785-.672c.462-.462.693-1.064.693-1.806v-9.597c0-.07.021-.126.063-.168a.261.261 0 0 1 .189-.084h2.457a.2.2 0 0 1 .168.084.2.2 0 0 1 .084.168v9.576c0 .994-.231 1.876-.693 2.646-.448.756-1.085 1.344-1.911 1.764-.812.42-1.757.63-2.835.63Zm16.619-.168c-.14 0-.231-.07-.273-.21l-.63-2.058c-.028-.056-.063-.084-.105-.084h-5.166c-.042 0-.077.028-.105.084l-.609 2.058c-.042.14-.133.21-.273.21h-2.667c-.084 0-.147-.021-.189-.063-.042-.056-.049-.133-.021-.231l4.536-14.196c.042-.14.133-.21.273-.21h3.297c.14 0 .231.07.273.21l4.536 14.196a.234.234 0 0 1 .021.105c0 .126-.077.189-.231.189h-2.667Zm-5.523-4.767c-.014.084.014.126.084.126h3.696c.084 0 .112-.042.084-.126l-1.89-6.237c-.014-.056-.035-.077-.063-.063-.028 0-.049.021-.063.063l-1.848 6.237Zm10.308 4.767a.307.307 0 0 1-.189-.063.307.307 0 0 1-.063-.189v-14.196c0-.07.021-.126.063-.168a.261.261 0 0 1 .189-.084h2.457a.2.2 0 0 1 .168.084.2.2 0 0 1 .084.168v11.802c0 .07.035.105.105.105h6.867a.2.2 0 0 1 .168.084.2.2 0 0 1 .084.168v2.037c0 .07-.028.133-.084.189a.227.227 0 0 1-.168.063h-9.681Z" fill="#fff"/><defs><linearGradient id="a" x1="1139.12" y1="27.036" x2="1127.34" y2="425.989" gradientUnits="userSpaceOnUse"><stop stop-color="#898A8B" stop-opacity=".55"/><stop offset="1" stop-color="#BCBDBF" stop-opacity="0"/></linearGradient></defs></svg>