<svg width="64" height="64" fill="none" xmlns="http://www.w3.org/2000/svg"><path d="M28.831 52.8H20.95c-5.376 0-9.75-4.374-9.75-9.75v-22.1c0-5.376 4.374-9.75 9.75-9.75H35.9c5.376 0 9.75 4.374 9.75 9.75v5.281c-.086 2.156-3.165 2.155-3.25 0v-5.28c0-3.585-2.916-6.5-6.5-6.5H20.95a6.507 6.507 0 0 0-6.5 6.5v22.1c0 3.583 2.916 6.5 6.5 6.5h7.881c2.156.085 2.155 3.164 0 3.25ZM37.2 19.163c-.086-2.156-3.165-2.155-3.25 0a2.44 2.44 0 0 1-2.438 2.437h-6.175a2.44 2.44 0 0 1-2.437-2.437 1.625 1.625 0 1 0-3.25 0 5.694 5.694 0 0 0 5.688 5.687h6.174a5.694 5.694 0 0 0 5.688-5.687ZM52.8 41.83c0-6.048-4.92-10.968-10.969-10.968-14.552.602-14.546 21.337 0 21.937 6.048 0 10.969-4.92 10.969-10.969Zm-3.25 0c0 4.257-3.463 7.72-7.719 7.72-10.24-.425-10.236-15.016 0-15.438 4.256 0 7.719 3.462 7.719 7.718Zm-4.957 1.625H41.83a1.625 1.625 0 0 1-1.625-1.625v-3.33c.086-2.157 3.165-2.155 3.25 0v1.705h1.137c2.156.086 2.154 3.165 0 3.25ZM32.569 30.538c0-.898-.728-1.625-1.625-1.625h-9.181c-2.157.085-2.155 3.165 0 3.25h9.18c.898 0 1.626-.728 1.626-1.625Zm-4.063 6.5c0-.898-.727-1.625-1.625-1.625h-5.119c-2.155.086-2.154 3.165 0 3.25h5.12c.897 0 1.624-.728 1.624-1.625Zm-.812 6.5c0-.898-.728-1.625-1.625-1.625h-4.306c-2.157.086-2.155 3.165 0 3.25h4.306c.897 0 1.625-.728 1.625-1.625Z" fill="#BCBDBF"/></svg>