<svg width="160" height="53" fill="none" xmlns="http://www.w3.org/2000/svg"><path d="M0 29.264V0h26.871c3.92 0 6.89.663 8.91 1.99 2.051 1.297 3.076 3.242 3.076 5.835 0 1.658-.407 2.97-1.221 3.935-.814.935-1.975 1.628-3.483 2.08-1.477.453-3.226.74-5.246.86l.18-.317c1.478.03 2.865.136 4.162.317 1.326.18 2.487.513 3.482.995.995.482 1.78 1.161 2.352 2.035.573.845.86 1.96.86 3.348 0 1.809-.483 3.317-1.448 4.523-.964 1.176-2.306 2.065-4.025 2.668-1.719.603-3.71.935-5.97.995H0Zm6.016-4.975h21.85c1.9 0 3.362-.302 4.388-.905 1.025-.633 1.537-1.628 1.537-2.985 0-.995-.301-1.719-.904-2.171-.603-.452-1.402-.724-2.398-.814-.995-.12-2.065-.181-3.21-.181H6.015v7.056Zm0-11.896h20.629c1.9 0 3.362-.271 4.387-.814 1.025-.573 1.538-1.538 1.538-2.895s-.513-2.306-1.538-2.85c-1.025-.572-2.382-.859-4.07-.859H6.015v7.418ZM52.047 17.052v7.192h22.57v5.02H46.03V0h28.54v5.02H52.047v7.283H118.5v4.749H52.047Z" fill="#FC5830"/><path d="M153.971 17.052v7.192h-22.57v5.02h28.586V0h-28.541v5.02h22.525v7.283H116v4.749h37.971Z" fill="#FC5830"/><path d="M2.569 45.946v-1.418h3.96c.473 0 .847-.125 1.124-.374.276-.26.415-.616.415-1.07 0-.474-.139-.835-.415-1.085-.277-.25-.651-.374-1.124-.374H2.783v7.13h-1.78V40.1h5.365c.482 0 .932.058 1.352.174.428.115.798.294 1.11.535.321.24.57.548.75.923.178.374.267.825.267 1.351 0 .517-.09.959-.268 1.325a2.366 2.366 0 0 1-.749.896 3.241 3.241 0 0 1-1.11.495 5.92 5.92 0 0 1-1.352.147h-3.8Zm10.732-.802v2.127h6.676v1.485h-8.455V40.1h8.442v1.485H13.3v2.154h5.459v1.405H13.3Zm8.503 3.612V40.1h5.873c.67 0 1.25.093 1.74.28.5.179.887.464 1.164.857.276.383.415.878.415 1.485 0 .41-.072.758-.215 1.044a1.82 1.82 0 0 1-.602.695c-.25.179-.54.317-.87.415-.33.09-.682.147-1.056.174l-.188-.107c.625.009 1.138.062 1.54.16.4.09.7.26.895.509.206.24.308.602.308 1.084v2.06h-1.78v-1.94c0-.33-.057-.584-.173-.763-.116-.187-.326-.316-.629-.388-.294-.071-.722-.107-1.284-.107h-3.358v3.198h-1.78Zm1.78-4.59h4.093c.5 0 .88-.12 1.138-.36.267-.241.401-.567.401-.977 0-.392-.134-.691-.401-.896-.259-.206-.638-.308-1.138-.308h-4.093v2.542Zm8.698 1.673h1.806c.036.303.174.58.415.83.25.24.575.432.977.575.401.134.852.2 1.351.2.455 0 .83-.048 1.124-.147.294-.098.513-.236.655-.414a.996.996 0 0 0 .215-.642c0-.241-.09-.424-.268-.549-.178-.134-.46-.24-.843-.321a18.47 18.47 0 0 0-1.512-.268c-.49-.071-.954-.17-1.391-.294a5.156 5.156 0 0 1-1.164-.508 2.546 2.546 0 0 1-.79-.75 1.995 1.995 0 0 1-.28-1.07c0-.508.142-.954.428-1.338.294-.383.727-.682 1.297-.896.571-.214 1.271-.321 2.1-.321 1.25 0 2.208.267 2.877.802.678.527 1.008 1.254.99 2.181H38.53c-.035-.526-.258-.905-.669-1.137-.401-.232-.91-.348-1.525-.348-.57 0-1.044.085-1.418.254-.366.17-.549.46-.549.87 0 .16.045.303.134.428.09.116.24.219.455.308.214.089.504.174.87.254.365.08.82.16 1.364.24.509.072.968.17 1.378.295.42.116.776.272 1.07.468.304.188.536.429.696.723.16.294.241.655.241 1.084 0 .526-.138.985-.415 1.378-.267.383-.686.682-1.257.896-.562.214-1.294.321-2.194.321-.643 0-1.209-.067-1.7-.2a4.76 4.76 0 0 1-1.27-.562 3.676 3.676 0 0 1-.87-.763 2.853 2.853 0 0 1-.482-.83 1.95 1.95 0 0 1-.107-.749Zm15.016 3.09c-1.15 0-2.136-.178-2.957-.534-.812-.366-1.436-.883-1.873-1.552-.428-.67-.642-1.472-.642-2.409 0-.945.214-1.752.642-2.421.437-.67 1.061-1.182 1.873-1.539.82-.365 1.806-.548 2.957-.548 1.16 0 2.145.183 2.957.548.811.357 1.431.87 1.86 1.539.436.669.655 1.476.655 2.421 0 .937-.219 1.74-.656 2.409-.428.669-1.048 1.186-1.86 1.552-.811.356-1.797.535-2.956.535Zm0-1.538c.713 0 1.338-.107 1.873-.32.544-.215.968-.54 1.27-.978.313-.437.47-.99.47-1.659 0-.668-.157-1.221-.47-1.658-.302-.438-.726-.763-1.27-.977-.535-.223-1.16-.335-1.873-.335-.705 0-1.334.112-1.887.335-.553.214-.985.54-1.297.977-.313.436-.469.99-.469 1.658 0 .67.156 1.222.469 1.66.312.437.744.762 1.297.976.553.214 1.182.321 1.887.321Zm15.985-.401-.562.227V40.1h1.78v8.656h-1.78l-6.997-6.837.562-.227v7.064h-1.78V40.1h1.78l6.997 6.89Zm4.635-.12v-1.486h5.726v1.485h-5.727Zm-2.155 1.886 4.068-8.656h1.926l4.108 8.656h-1.94l-3.56-7.8h.857l-3.532 7.8h-1.927Zm13.14-8.656v7.17h5.752v1.486h-7.532V40.1h1.78ZM91.248 40.1h9.125v1.485h-9.125V40.1Zm3.68 1.297h1.779v7.359h-1.78v-7.359Zm6.738 7.359V40.1h5.873c.669 0 1.249.093 1.74.28.499.179.887.464 1.164.857.276.383.414.878.414 1.485 0 .41-.071.758-.214 1.044a1.81 1.81 0 0 1-.602.695 2.91 2.91 0 0 1-.869.415c-.33.09-.683.147-1.057.174l-.188-.107c.625.009 1.138.062 1.539.16.401.09.7.26.896.509.205.24.308.602.308 1.084v2.06h-1.779v-1.94c0-.33-.058-.584-.174-.763-.116-.187-.326-.316-.629-.388-.294-.071-.723-.107-1.285-.107h-3.358v3.198h-1.779Zm1.779-4.59h4.094c.5 0 .879-.12 1.138-.36.267-.241.401-.567.401-.977 0-.392-.134-.691-.401-.896-.259-.206-.638-.308-1.138-.308h-4.094v2.542Zm10.626 2.703v-1.485h5.726v1.485h-5.726Zm-2.154 1.887 4.067-8.656h1.926l4.108 8.656h-1.94l-3.559-7.8h.856l-3.532 7.8h-1.926ZM123.53 40.1h1.78v8.656h-1.78V40.1Zm12.86 6.89-.561.227V40.1h1.779v8.656h-1.779l-6.998-6.837.562-.227v7.064h-1.779V40.1h1.779l6.997 6.89Zm5.063-1.846v2.127h6.676v1.485h-8.456V40.1h8.442v1.485h-6.662v2.154h5.458v1.405h-5.458Zm8.503 3.612V40.1h5.873c.669 0 1.249.093 1.739.28.5.179.888.464 1.164.857.277.383.415.878.415 1.485 0 .41-.071.758-.214 1.044a1.818 1.818 0 0 1-.602.695c-.25.179-.54.317-.87.415-.33.09-.682.147-1.057.174l-.187-.107c.624.009 1.137.062 1.539.16.401.09.7.26.896.509.205.24.308.602.308 1.084v2.06h-1.78v-1.94c0-.33-.058-.584-.174-.763-.116-.187-.325-.316-.628-.388-.295-.071-.723-.107-1.285-.107h-3.358v3.198h-1.779Zm1.779-4.59h4.094c.5 0 .879-.12 1.137-.36.268-.241.402-.567.402-.977 0-.392-.134-.691-.402-.896-.258-.206-.637-.308-1.137-.308h-4.094v2.542Z" fill="#fff"/></svg>