<svg width="64" height="64" fill="none" xmlns="http://www.w3.org/2000/svg"><path d="M47.92 30.222a4.857 4.857 0 0 1-3.444-1.425l-9.256-9.256c-4.381-4.76 2.134-11.269 6.89-6.89l9.255 9.256c3.067 3.055.834 8.343-3.444 8.315Zm-9.256-15.749c-1.426-.01-2.17 1.754-1.148 2.771l9.256 9.257c1.587 1.46 3.757-.712 2.297-2.297l-9.256-9.256a1.619 1.619 0 0 0-1.149-.475ZM25.35 52.793a4.857 4.857 0 0 1-3.445-1.424l-9.256-9.256c-4.381-4.76 2.134-11.269 6.89-6.89l9.256 9.256c3.067 3.055.833 8.343-3.445 8.315Zm-9.256-15.748c-1.427-.01-2.17 1.754-1.149 2.771l9.257 9.256c1.587 1.46 3.756-.71 2.296-2.296l-9.256-9.256a1.619 1.619 0 0 0-1.148-.475Zm11.204 1.298a1.624 1.624 0 0 1-1.143-2.777l9.5-9.418c1.59-1.456 3.755.73 2.286 2.306l-9.5 9.419c-.316.314-.73.47-1.143.47Zm23.558-22.885 1.462-1.461c1.463-1.585-.714-3.76-2.297-2.297l-1.461 1.462c-1.024 1.018-.277 2.78 1.148 2.772.416 0 .831-.159 1.148-.476ZM13.993 52.32l1.462-1.461c1.463-1.584-.714-3.759-2.297-2.297l-1.461 1.462c-1.024 1.018-.277 2.78 1.148 2.772a1.62 1.62 0 0 0 1.148-.476Z" fill="#BCBDBF"/></svg>