<svg width="64" height="64" fill="none" xmlns="http://www.w3.org/2000/svg"><path d="M31.96 51.018h-.002c-2.354 0-4.673-.794-6.53-2.237-6.372-4.952-14.012-13.178-14.228-24.248.033-10.117 11.422-15.109 19.017-8.673.675.583 1.259 1.228 1.742 1.915a10.575 10.575 0 0 1 1.743-1.915c2.146-1.853 4.925-2.874 7.826-2.874a1.622 1.622 0 0 1 0 3.244c-4.548 0-7.947 3.382-7.947 6.406a1.622 1.622 0 1 1-3.244 0c0-3.024-3.398-6.406-7.947-6.406-4.377 0-7.938 3.702-7.947 8.256.198 9.783 7.164 17.218 12.975 21.733a7.434 7.434 0 0 0 4.54 1.556 7.434 7.434 0 0 0 4.543-1.556c5.173-4.02 8.862-8.414 10.964-13.06a1.622 1.622 0 1 1 2.955 1.336c-2.321 5.132-6.335 9.938-11.929 14.286a10.695 10.695 0 0 1-6.53 2.237Zm-6.334-12.862 4.437-4.29a2.427 2.427 0 0 1 3.116-.082l.185.136a5.688 5.688 0 0 0 7.704-.663l5.7-6.108a1.622 1.622 0 0 0-2.371-2.213l-5.73 6.14a2.438 2.438 0 0 1-3.317.28l-.184-.137a5.663 5.663 0 0 0-7.292.252l-4.502 4.352c-1.05 1.01-.31 2.797 1.127 2.788.406 0 .812-.151 1.127-.455Zm25.552-8.627a1.622 1.622 0 0 1-1.622-1.622v-4.379c0-.894-.727-1.622-1.621-1.622h-4.38c-2.151-.085-2.15-3.159 0-3.243h4.38a4.871 4.871 0 0 1 4.865 4.865v4.38c0 .895-.726 1.62-1.622 1.62Z" fill="#BCBDBF"/></svg>