<svg width="138" height="45" fill="none" xmlns="http://www.w3.org/2000/svg"><path d="M0 25.111V0h23.058c3.363 0 5.912.57 7.646 1.708 1.76 1.112 2.639 2.781 2.639 5.006 0 1.424-.35 2.55-1.048 3.377-.699.802-1.695 1.397-2.989 1.785-1.267.389-2.768.634-4.502.738l.155-.272c1.268.026 2.459.117 3.571.272 1.139.155 2.135.44 2.989.854.854.414 1.526.996 2.018 1.746.492.725.737 1.682.737 2.872 0 1.553-.414 2.847-1.242 3.882-.828 1.009-1.979 1.772-3.454 2.29-1.475.517-3.183.802-5.123.853H0Zm5.162-4.269h18.75c1.63 0 2.885-.259 3.764-.776.88-.544 1.32-1.397 1.32-2.562 0-.854-.259-1.475-.776-1.863-.518-.388-1.203-.62-2.057-.698a22.951 22.951 0 0 0-2.756-.156H5.162v6.055Zm0-10.207h17.702c1.63 0 2.885-.233 3.764-.7.88-.49 1.32-1.319 1.32-2.483 0-1.164-.44-1.98-1.32-2.445-.88-.492-2.044-.738-3.493-.738H5.162v6.365ZM44.66 14.632v6.171h19.368v4.308h-24.53V0h24.49v4.308H44.66v6.249h57.023v4.075H44.66Z" fill="#fff"/><path d="M132.12 14.632v6.171h-19.367v4.308h24.529V0h-24.49v4.308h19.328v6.249H99.538v4.075h32.582ZM2.204 40.13v-1.218h3.398c.406 0 .727-.107.965-.321.237-.222.356-.528.356-.919 0-.405-.119-.715-.356-.93-.238-.214-.559-.321-.965-.321H2.388v6.119H.86v-7.428h4.604c.413 0 .8.05 1.16.15.367.099.684.252.952.459.276.206.49.47.643.792.153.321.23.708.23 1.16 0 .443-.077.822-.23 1.136a2.03 2.03 0 0 1-.643.77 2.782 2.782 0 0 1-.953.424 5.08 5.08 0 0 1-1.16.126h-3.26Zm9.21-.69v1.826h5.728v1.274H9.887v-7.428h7.244v1.275h-5.717v1.848h4.684v1.205h-4.684Zm7.296 3.1v-7.428h5.04c.574 0 1.071.08 1.492.241.429.153.762.398.999.735.237.33.356.754.356 1.274 0 .352-.061.651-.184.896a1.56 1.56 0 0 1-.517.597 2.495 2.495 0 0 1-.746.356 4.774 4.774 0 0 1-.907.149l-.16-.092c.535.008.976.054 1.32.138.344.076.6.222.77.436.175.207.263.517.263.93v1.768H24.91v-1.665c0-.283-.05-.5-.149-.654-.1-.16-.28-.272-.54-.333-.252-.061-.62-.092-1.102-.092h-2.881v2.744H18.71Zm1.527-3.938h3.513c.428 0 .754-.103.976-.31.23-.206.344-.486.344-.838 0-.337-.115-.593-.345-.769-.221-.176-.547-.264-.975-.264h-3.513v2.181Zm7.464 1.435h1.55c.03.26.149.498.356.712.214.207.493.371.838.494.344.115.73.172 1.16.172.39 0 .711-.042.964-.126.252-.084.44-.203.562-.356a.855.855 0 0 0 .184-.551.538.538 0 0 0-.23-.471c-.153-.115-.394-.207-.723-.276-.33-.076-.762-.153-1.297-.23a9.113 9.113 0 0 1-1.194-.252 4.421 4.421 0 0 1-1-.436 2.183 2.183 0 0 1-.676-.643 1.712 1.712 0 0 1-.242-.918c0-.437.123-.82.368-1.148.252-.33.624-.586 1.113-.77.49-.183 1.091-.275 1.803-.275 1.071 0 1.894.23 2.468.689.582.451.865 1.075.85 1.871h-1.493c-.03-.451-.222-.777-.574-.976-.344-.199-.78-.298-1.309-.298-.49 0-.895.072-1.216.218-.314.145-.471.394-.471.746 0 .138.038.26.115.367.076.1.206.188.39.265.184.076.432.149.746.218s.704.137 1.171.206a7.8 7.8 0 0 1 1.183.253c.36.1.666.233.918.402.26.16.46.367.597.62.138.252.207.562.207.93a2 2 0 0 1-.356 1.182c-.23.33-.59.586-1.08.77-.482.183-1.11.275-1.882.275a5.562 5.562 0 0 1-1.458-.172 4.085 4.085 0 0 1-1.09-.483 3.156 3.156 0 0 1-.747-.654 2.447 2.447 0 0 1-.413-.712 1.672 1.672 0 0 1-.092-.643Zm12.885 2.652c-.988 0-1.833-.153-2.538-.459-.696-.314-1.232-.758-1.607-1.332-.367-.574-.55-1.263-.55-2.066 0-.811.183-1.504.55-2.078.375-.574.911-1.014 1.607-1.32.705-.314 1.55-.471 2.538-.471.995 0 1.84.157 2.537.47.696.307 1.228.747 1.596 1.321.375.574.562 1.267.562 2.078 0 .803-.187 1.492-.562 2.066-.368.574-.9 1.018-1.596 1.332-.697.306-1.542.46-2.537.46Zm0-1.32c.612 0 1.148-.092 1.607-.276.467-.183.83-.463 1.09-.838.268-.375.402-.85.402-1.423 0-.574-.134-1.049-.402-1.424a2.322 2.322 0 0 0-1.09-.838c-.46-.191-.995-.287-1.607-.287-.605 0-1.145.096-1.619.287-.475.184-.846.463-1.114.838-.267.375-.401.85-.401 1.424s.134 1.048.401 1.423c.268.375.64.655 1.114.838.474.184 1.014.276 1.619.276Zm13.717-.344-.482.195v-6.108h1.526v7.428h-1.526l-6.005-5.866.482-.196v6.062h-1.526v-7.428h1.526l6.005 5.913Zm3.976-.104v-1.274h4.914v1.274h-4.914Zm-1.848 1.619 3.49-7.428h1.653l3.524 7.428h-1.664l-3.054-6.693h.735l-3.031 6.693H56.43Zm11.274-7.428v6.154h4.937v1.274h-6.464v-7.428h1.527ZM78.299 35.112h7.83v1.275h-7.83v-1.275Zm3.157 1.114h1.527v6.314h-1.527v-6.314Zm5.782 6.314v-7.428h5.04c.574 0 1.072.08 1.492.241.43.153.762.398 1 .735.237.33.355.754.355 1.274 0 .352-.061.651-.183.896a1.562 1.562 0 0 1-.517.597 2.496 2.496 0 0 1-.746.356 4.772 4.772 0 0 1-.907.149l-.161-.092c.536.008.976.054 1.32.138.345.076.601.222.77.436.175.207.263.517.263.93v1.768h-1.526v-1.665c0-.283-.05-.5-.15-.654-.1-.16-.279-.272-.54-.333-.252-.061-.62-.092-1.101-.092h-2.882v2.744h-1.527Zm1.527-3.938h3.513c.429 0 .754-.103.976-.31.23-.206.344-.486.344-.838 0-.337-.114-.593-.344-.769-.222-.176-.547-.264-.976-.264h-3.513v2.181Zm9.117 2.32v-1.275h4.914v1.274h-4.914Zm-1.848 1.618 3.49-7.428h1.653l3.525 7.428h-1.665l-3.054-6.693h.735l-3.03 6.693h-1.654ZM106 35.112h1.527v7.428H106v-7.428Zm11.035 5.913-.482.195v-6.108h1.526v7.428h-1.526l-6.005-5.866.483-.196v6.062h-1.527v-7.428h1.527l6.004 5.913Zm4.344-1.585v1.826h5.728v1.274h-7.255v-7.428h7.244v1.275h-5.717v1.848h4.684v1.205h-4.684Zm7.296 3.1v-7.428h5.04c.574 0 1.071.08 1.492.241.429.153.762.398.999.735.237.33.356.754.356 1.274 0 .352-.061.651-.184.896a1.555 1.555 0 0 1-.516.597 2.499 2.499 0 0 1-.747.356 4.764 4.764 0 0 1-.907.149l-.16-.092c.535.008.976.054 1.32.138.344.076.601.222.769.436.176.207.264.517.264.93v1.768h-1.527v-1.665c0-.283-.049-.5-.149-.654-.099-.16-.279-.272-.54-.333-.252-.061-.619-.092-1.102-.092h-2.881v2.744h-1.527Zm1.527-3.938h3.513c.428 0 .754-.103.976-.31.229-.206.344-.486.344-.838 0-.337-.115-.593-.344-.769-.222-.176-.548-.264-.976-.264h-3.513v2.181Z" fill="#fff"/></svg>