<svg width="302" height="302" fill="none" xmlns="http://www.w3.org/2000/svg"><circle cx="150.512" cy="150.513" r="96.324" stroke="#363636"/><circle cx="150.512" cy="150.512" r="150.012" stroke="#363636"/><path d="m272.308 150.77-.199 2.85c-.482.023-.933.21-1.354.563-.407.367-.745.86-1.014 1.477-.255.619-.41 1.322-.465 2.11-.05.718-.014 1.314.109 1.789.122.475.316.835.582 1.08.266.244.596.38.99.408.379.026.678-.094.894-.362.231-.267.431-.698.599-1.295.183-.595.379-1.38.588-2.355.167-.766.372-1.487.617-2.163a8.148 8.148 0 0 1 .93-1.78c.36-.498.783-.886 1.268-1.163.499-.262 1.072-.371 1.72-.326.802.056 1.489.33 2.063.822.573.507.997 1.222 1.272 2.146.275.924.367 2.04.276 3.349-.137 1.969-.665 3.453-1.582 4.449-.905 1.012-2.088 1.452-3.549 1.323l.191-2.744c.834.001 1.456-.309 1.867-.931.41-.607.649-1.397.716-2.367.063-.901-.019-1.656-.245-2.265-.227-.596-.664-.916-1.312-.961a1.133 1.133 0 0 0-.69.164c-.192.128-.371.356-.535.684-.164.328-.33.776-.496 1.344a32.024 32.024 0 0 0-.53 2.126 14.35 14.35 0 0 1-.616 2.142c-.228.648-.514 1.194-.856 1.637a3.048 3.048 0 0 1-1.216 1.018c-.482.221-1.06.308-1.736.261-.83-.058-1.539-.326-2.128-.806-.575-.464-1.001-1.158-1.276-2.082-.276-.91-.365-2.075-.266-3.496.071-1.013.238-1.899.503-2.659.279-.758.621-1.406 1.026-1.943.405-.537.838-.967 1.299-1.288.46-.322.914-.544 1.361-.669.446-.11.844-.139 1.194-.087ZM268.816 170.989l2.29.519-2.001 8.831-2.29-.519 2.001-8.831Zm-2.157-3.981 11.928 9.297-.673 2.972-14.785 3.309.678-2.992 13.273-2.762-.299 1.32-10.795-8.173.673-2.971ZM275.116 190.696l-5.371 13.391-2.179-.874 5.371-13.391 2.179.874Zm-4.07 4.635-1.047 2.612-10.8-4.332 1.048-2.611 10.799 4.331ZM266.65 210.323l-1.35 2.469-12.009-6.567 1.35-2.469 12.009 6.567ZM254.496 213.89l-1.646 2.333c-.425-.23-.908-.303-1.45-.22-.539.104-1.084.35-1.634.738-.539.397-1.035.918-1.491 1.563-.414.588-.692 1.117-.834 1.587-.141.47-.162.878-.061 1.225.1.347.312.634.634.862.312.219.629.271.953.154.336-.109.73-.374 1.183-.797.465-.414 1.04-.984 1.724-1.709a16.852 16.852 0 0 1 1.648-1.53 8.16 8.16 0 0 1 1.718-1.041 4.031 4.031 0 0 1 1.688-.337c.562.034 1.109.239 1.639.612.657.464 1.103 1.055 1.338 1.773.228.73.22 1.561-.024 2.494-.244.933-.743 1.935-1.499 3.007-1.139 1.614-2.358 2.609-3.659 2.985-1.298.397-2.538.161-3.721-.708l1.585-2.247c.713.433 1.406.49 2.08.172.665-.308 1.278-.859 1.839-1.654.52-.738.842-1.426.964-2.064.115-.627-.093-1.128-.624-1.502a1.131 1.131 0 0 0-.675-.217c-.231.009-.502.112-.812.307-.31.196-.684.493-1.121.892-.437.4-.955.914-1.555 1.544a14.398 14.398 0 0 1-1.636 1.513c-.532.436-1.059.754-1.581.956a3.055 3.055 0 0 1-1.567.241c-.527-.061-1.067-.287-1.62-.677-.68-.48-1.148-1.077-1.403-1.792-.252-.695-.256-1.509-.012-2.442.235-.921.764-1.964 1.585-3.128.585-.83 1.188-1.501 1.808-2.013.631-.503 1.259-.88 1.884-1.13a5.837 5.837 0 0 1 1.778-.429 4.521 4.521 0 0 1 1.511.134c.439.137.794.318 1.066.545ZM240.922 244.884l-1.697-1.624 7.286-7.61-2.659-2.546-5.969 6.235-1.589-1.522 5.969-6.235-3.943-3.774 1.946-2.033 9.887 9.466-9.231 9.643ZM227.842 242.296l1.423 1.869-7.204 5.485-1.423-1.868 7.204-5.486Zm.903-4.436 3.176 14.786-2.424 1.845-13.46-6.955 2.441-1.858 11.949 6.403-1.077.821-3.029-13.197 2.424-1.845ZM200.687 261.743c-.394-1.035-.481-2.047-.262-3.034.219-.987.729-1.919 1.53-2.795.801-.875 1.884-1.667 3.249-2.375 1.139-.59 2.253-1.001 3.341-1.231 1.075-.224 2.093-.251 3.055-.082a6.134 6.134 0 0 1 2.59 1.135c.785.594 1.449 1.417 1.995 2.469.545 1.052.834 2.07.867 3.053a6.083 6.083 0 0 1-.555 2.79c-.41.896-1.016 1.718-1.819 2.468-.809.769-1.783 1.448-2.922 2.039-1.365.708-2.639 1.13-3.823 1.267-1.197.144-2.265.014-3.204-.389-.933-.39-1.706-1.053-2.319-1.991l2.479-1.285c.436.442.945.75 1.528.924.576.194 1.217.235 1.922.123.705-.111 1.471-.381 2.297-.809 1.027-.532 1.844-1.162 2.452-1.89.614-.716.971-1.497 1.073-2.344.107-.834-.076-1.708-.55-2.622-.467-.902-1.072-1.549-1.816-1.942s-1.588-.551-2.534-.474c-.938.09-1.921.4-2.948.933-.826.428-1.482.895-1.966 1.4-.497.512-.837 1.053-1.017 1.624a3.766 3.766 0 0 0-.164 1.753l-2.479 1.285ZM199.165 272.044l-13.724 4.454-.725-2.234 13.724-4.453.725 2.233Zm-6.167-.156-2.677.869-3.592-11.068 2.677-.868 3.592 11.067ZM178.611 278.106l-2.762.538-2.616-13.435 2.762-.538 2.616 13.435ZM158.827 266.865c1.817-.105 3.389.086 4.717.574 1.315.503 2.348 1.263 3.099 2.279.737 1.017 1.148 2.264 1.234 3.743.086 1.492-.178 2.786-.793 3.881-.628 1.096-1.567 1.963-2.816 2.601-1.262.652-2.801 1.031-4.617 1.136-1.831.106-3.403-.093-4.718-.596-1.314-.489-2.339-1.241-3.076-2.258-.752-1.016-1.17-2.271-1.257-3.763-.086-1.479.186-2.766.815-3.862.614-1.095 1.546-1.968 2.794-2.62 1.248-.637 2.788-1.009 4.618-1.115Zm.141 2.429c-1.126.065-2.102.291-2.928.678-.839.388-1.478.94-1.917 1.658-.452.718-.648 1.606-.587 2.662.061 1.056.358 1.914.891 2.576.519.662 1.217 1.137 2.096 1.425.865.303 1.861.422 2.987.357 1.112-.064 2.095-.298 2.947-.701.854-.388 1.507-.942 1.96-1.66.453-.719.648-1.606.587-2.662-.061-1.056-.358-1.915-.891-2.576-.532-.661-1.245-1.136-2.138-1.423-.892-.287-1.895-.399-3.007-.334ZM130.433 268.65l.927-.244-1.428 11.164-2.791-.357 1.736-13.577 2.791.357 9.604 12.126-.927.244 1.417-11.08 2.791.357-1.736 13.577-2.791-.357-9.593-12.21ZM108.896 259.557c1.179.468 2.193 1.03 3.041 1.685.835.65 1.49 1.388 1.967 2.214.463.821.717 1.711.761 2.669.045.959-.143 1.969-.565 3.031-.426 1.075-.993 1.95-1.701 2.625a6.43 6.43 0 0 1-2.495 1.468c-.95.291-1.974.386-3.071.284-1.116-.094-2.277-.38-3.483-.859-1.429-.566-2.581-1.259-3.455-2.076-.88-.804-1.472-1.684-1.776-2.639-.317-.96-.317-1.954 0-2.982l2.517.999a3.506 3.506 0 0 0 .307 1.692c.224.545.609 1.046 1.155 1.506.541.472 1.257.885 2.149 1.239 1.141.453 2.19.657 3.148.612.946-.05 1.761-.326 2.446-.828.684-.502 1.206-1.205 1.565-2.11.349-.878.467-1.712.355-2.5-.118-.775-.489-1.483-1.114-2.126-.638-.647-1.554-1.208-2.747-1.681-.918-.364-1.771-.566-2.559-.606-.807-.032-1.527.062-2.16.281-.639.232-1.158.565-1.557.998l-1.171-.032c.842-1.623 2.007-2.686 3.496-3.188 1.475-.507 3.124-.399 4.947.324Zm-5.746-1.983c-.161.406-.372.861-.632 1.365a36.868 36.868 0 0 1-.837 1.534l-.817 1.428 5.821 2.31-.663 1.671-7.59-3.011 2.457-6.195 2.261.898ZM82.865 253.33l-4.029 6.488-2.39-1.484 4.185-6.74c.476-.767 1.006-1.368 1.591-1.801a4.597 4.597 0 0 1 1.839-.876 5.984 5.984 0 0 1 2.04-.078c.688.096 1.389.29 2.103.584a14.1 14.1 0 0 1 2.113 1.088c.731.454 1.393.939 1.985 1.456a8.972 8.972 0 0 1 1.491 1.649c.383.586.65 1.2.8 1.841.15.641.16 1.319.03 2.036-.141.709-.45 1.447-.926 2.214l-4.185 6.74-2.39-1.485 4.028-6.488c.566-.911.818-1.717.756-2.42-.07-.69-.36-1.319-.871-1.885-.531-.562-1.198-1.093-2.001-1.591-.779-.484-1.526-.831-2.241-1.043-.735-.207-1.427-.189-2.077.056-.669.248-1.286.828-1.851 1.739ZM75.525 244.343l-1.555 1.76-6.785-5.996 1.554-1.759 6.786 5.995Zm4.528.019-13.883 6-2.283-2.017 4.195-14.558 2.3 2.031-3.95 12.969-1.014-.896 12.352-5.546 2.283 2.017ZM64.997 230.842l-10.644 8.607-5.839-7.222c-.665-.823-1.126-1.629-1.384-2.418-.277-.792-.312-1.553-.104-2.283.196-.721.668-1.383 1.413-1.986.505-.408 1.004-.666 1.496-.775a2.875 2.875 0 0 1 1.454.049c.468.13.926.349 1.375.657.438.317.86.693 1.265 1.127l.054.336c-.61-.776-1.053-1.46-1.332-2.051-.29-.582-.378-1.118-.266-1.608.092-.492.434-.977 1.027-1.456l2.533-2.048 1.77 2.188-2.386 1.929c-.406.328-.66.652-.765.972-.115.328-.066.715.148 1.159.205.432.587.994 1.146 1.685l3.338 4.129 3.932-3.179 1.77 2.188Zm-7.412 2.375-4.07-5.034c-.497-.614-1.022-.961-1.575-1.039-.562-.09-1.095.069-1.6.477-.482.39-.717.852-.703 1.385.005.522.256 1.09.752 1.704l4.07 5.034 3.126-2.527ZM49.005 214.832l-2.044 1.157-4.46-7.88 2.043-1.157 4.46 7.88Zm4.274 1.494-15.08 1.147-1.501-2.651 8.711-12.395 1.512 2.669-7.96 10.974-.668-1.179 13.485-1.216 1.5 2.651ZM36.133 186.632l.639.715-10.596 3.795-.949-2.649 12.886-4.615.95 2.649-6.447 14.062-.639-.716 10.516-3.766.95 2.649-12.887 4.615-.949-2.649 6.526-14.09ZM23.404 182.513l-2.54-14.203 2.311-.413 2.54 14.203-2.31.413Zm.996-6.088-.496-2.77 11.454-2.049.496 2.77-11.454 2.049ZM27.89 158.414l3.362-.078-.244-10.554 2.348-.054.31 13.367-13.685.317-.31-13.346 2.349-.054.243 10.532 3.406-.078-.2-8.63 2.22-.051.2 8.629ZM28.13 139.318l3.335.44 1.378-10.467 2.329.307-1.747 13.256-13.57-1.788 1.743-13.235 2.328.307-1.376 10.445 3.377.445 1.128-8.558 2.202.29-1.128 8.558ZM25.036 113.544c.452-1.469 1.005-2.642 1.659-3.518.653-.876 1.372-1.511 2.157-1.904a5.195 5.195 0 0 1 2.449-.618c.86-.015 1.722.11 2.585.375a7.71 7.71 0 0 1 2.356 1.191 5.805 5.805 0 0 1 1.718 1.968c.424.78.667 1.718.728 2.814.051 1.078-.139 2.318-.57 3.72l-2.304 7.481-13.082-4.028 2.304-7.481Zm9.301 8.11 1.457-4.731c.299-.971.431-1.808.397-2.512-.043-.722-.21-1.334-.497-1.835a3.744 3.744 0 0 0-1.126-1.233 5.523 5.523 0 0 0-1.523-.734 5.326 5.326 0 0 0-1.652-.243 3.58 3.58 0 0 0-1.583.398c-.507.257-.975.674-1.403 1.25-.424.563-.786 1.33-1.085 2.3l-1.457 4.731 8.472 2.609ZM41.237 96.244l1.444-2.464c.442.194.93.226 1.463.097.529-.148 1.05-.44 1.566-.873.503-.44.954-1.002 1.354-1.683.363-.62.596-1.171.697-1.651.101-.48.087-.889-.042-1.226a1.575 1.575 0 0 0-.705-.806c-.329-.192-.65-.216-.962-.073-.325.137-.696.434-1.112.894a29.222 29.222 0 0 0-1.573 1.848c-.49.613-.994 1.167-1.514 1.664a8.143 8.143 0 0 1-1.624 1.181 4.023 4.023 0 0 1-1.653.479c-.564.013-1.125-.144-1.685-.472-.694-.407-1.188-.958-1.483-1.654-.288-.708-.35-1.537-.186-2.487.164-.95.578-1.99 1.24-3.123.998-1.703 2.13-2.798 3.395-3.283 1.26-.504 2.515-.373 3.767.392l-1.39 2.373c-.747-.371-1.443-.37-2.087.004-.637.362-1.202.963-1.694 1.803-.456.78-.718 1.492-.786 2.138-.061.635.188 1.116.748 1.444.22.128.45.181.691.16.23-.03.49-.154.783-.375.293-.221.64-.549 1.042-.984.402-.434.875-.99 1.42-1.669a14.359 14.359 0 0 1 1.503-1.645c.493-.48.991-.841 1.494-1.086a3.046 3.046 0 0 1 1.542-.372c.53.016 1.087.195 1.67.538.719.42 1.235.976 1.55 1.667.31.672.382 1.482.218 2.432-.158.938-.596 2.022-1.316 3.25-.513.877-1.057 1.596-1.632 2.159-.587.555-1.18.983-1.782 1.285-.602.301-1.18.493-1.736.577a4.511 4.511 0 0 1-1.517-.006c-.448-.1-.817-.25-1.108-.453ZM52.977 80.163l-1.826-1.476 5.693-7.041 1.826 1.476-5.693 7.041Zm.178 4.525-6.6-13.608 1.916-2.369 14.727 3.556-1.929 2.385-13.129-3.379.851-1.052 6.08 12.098-1.916 2.368ZM55.882 59.758l10.708-9.67 1.574 1.743-10.708 9.67-1.574-1.743Zm5.694-2.376 2.088-1.886 7.798 8.636-2.088 1.885-7.798-8.635ZM72.375 45.58l2.3-1.62 7.889 11.185-2.3 1.621-7.89-11.185ZM84.641 47.804l2.506-1.37c.28.393.681.672 1.205.836.53.144 1.126.163 1.792.057.658-.12 1.334-.368 2.027-.747.63-.345 1.113-.697 1.447-1.057.334-.36.532-.717.595-1.073.063-.355 0-.706-.19-1.053-.183-.334-.445-.52-.788-.558-.349-.05-.82.014-1.413.194-.6.167-1.366.426-2.3.776-.735.273-1.453.489-2.154.647a8.147 8.147 0 0 1-2 .178 4.025 4.025 0 0 1-1.664-.44c-.49-.28-.89-.704-1.202-1.273-.385-.705-.526-1.432-.42-2.18.117-.756.49-1.499 1.12-2.229.63-.73 1.52-1.41 2.67-2.039 1.733-.947 3.266-1.303 4.6-1.069 1.34.216 2.35.974 3.028 2.275l-2.413 1.32c-.449-.704-1.046-1.06-1.79-1.07-.734-.018-1.527.207-2.38.674-.793.433-1.384.909-1.776 1.428-.378.513-.412 1.054-.1 1.623.121.223.291.387.51.492.211.094.5.12.864.082.365-.038.831-.14 1.4-.307.568-.166 1.26-.4 2.076-.701.76-.287 1.47-.5 2.135-.637.67-.157 1.283-.211 1.84-.163.563.03 1.067.188 1.513.475.446.287.832.727 1.157 1.32.399.731.556 1.473.47 2.227-.08.736-.436 1.468-1.065 2.198-.617.724-1.55 1.427-2.8 2.11-.892.487-1.728.824-2.51 1.011-.79.174-1.519.236-2.19.185-.67-.051-1.266-.184-1.785-.399a4.51 4.51 0 0 1-1.298-.785c-.333-.316-.572-.636-.717-.958ZM110.167 25.991l.809 2.205-9.892 3.627 1.268 3.456 8.104-2.971.757 2.066-8.104 2.971 1.879 5.125-2.642.968-4.712-12.85 12.533-4.597ZM120.827 33.963l-.449-2.305 8.888-1.73.449 2.304-8.888 1.73Zm-2.773 3.579 3.697-14.665 2.99-.582 8.991 12.194-3.011.586-7.881-11.03 1.329-.26-3.125 13.174-2.99.583ZM153.608 28.42c-.101 1.103-.467 2.05-1.098 2.84-.631.791-1.498 1.404-2.603 1.838-1.104.435-2.425.67-3.962.706-1.283.03-2.464-.091-3.542-.362-1.064-.272-1.991-.695-2.78-1.27a6.125 6.125 0 0 1-1.828-2.158c-.444-.878-.679-1.91-.707-3.094-.027-1.184.161-2.226.563-3.124a6.08 6.08 0 0 1 1.725-2.262c.762-.624 1.668-1.096 2.718-1.417 1.065-.335 2.238-.517 3.522-.547 1.537-.036 2.867.145 3.991.542 1.137.397 2.04.983 2.707 1.758.666.76 1.069 1.696 1.207 2.807l-2.791.065a3.54 3.54 0 0 0-.966-1.501c-.433-.428-.991-.746-1.673-.956-.682-.21-1.488-.304-2.419-.283-1.156.027-2.167.234-3.033.62-.866.373-1.531.918-1.994 1.634-.463.702-.683 1.568-.659 2.597.024 1.015.283 1.863.778 2.542.496.68 1.185 1.193 2.068 1.54.882.332 1.901.485 3.057.458.931-.022 1.725-.153 2.383-.394.671-.241 1.214-.578 1.627-1.011.427-.433.733-.934.917-1.503l2.792-.064ZM160.375 19.806l14.274 2.104-.343 2.324-14.274-2.104.343-2.324Zm5.456 2.879 2.784.41-1.697 11.512-2.784-.41 1.697-11.512ZM181.12 23.339l2.715.736-3.58 13.211-2.716-.736 3.581-13.211ZM194.371 42.263c-1.673-.715-2.995-1.587-3.966-2.615-.953-1.037-1.54-2.177-1.76-3.421-.206-1.239-.019-2.539.563-3.9.588-1.375 1.401-2.416 2.439-3.123 1.051-.7 2.278-1.059 3.679-1.073 1.421-.022 2.968.325 4.641 1.04 1.686.72 3.005 1.599 3.958 2.635.958 1.023 1.541 2.154 1.748 3.393.22 1.244.036 2.553-.552 3.928-.582 1.362-1.398 2.393-2.449 3.094-1.039.707-2.261 1.074-3.669 1.101-1.402.015-2.946-.338-4.632-1.059Zm.956-2.237c1.038.443 2.012.676 2.923.697.925.027 1.743-.183 2.455-.63.726-.442 1.297-1.149 1.712-2.122.416-.972.533-1.873.35-2.703-.169-.824-.583-1.56-1.241-2.21-.639-.657-1.478-1.207-2.516-1.65-1.024-.438-2.008-.667-2.95-.686-.937-.032-1.769.172-2.494.614-.726.441-1.296 1.148-1.712 2.121-.416.973-.533 1.874-.35 2.703.182.83.609 1.572 1.28 2.227.671.655 1.519 1.201 2.543 1.639ZM220.487 53.177l-.938-.194 6.249-9.36 2.34 1.561-7.6 11.384-2.34-1.562-3.2-15.135.939.195-6.202 9.29-2.34-1.562 7.6-11.384 2.34 1.562 3.152 15.205ZM235.602 70.624c-.854-.939-1.518-1.889-1.992-2.85-.464-.95-.729-1.901-.794-2.853a5.922 5.922 0 0 1 .489-2.732c.381-.88.994-1.705 1.839-2.474.856-.778 1.75-1.315 2.682-1.61a6.427 6.427 0 0 1 2.886-.224c.981.157 1.942.522 2.884 1.095.961.575 1.878 1.342 2.751 2.302 1.035 1.137 1.765 2.265 2.192 3.383.436 1.11.582 2.16.435 3.15-.137 1.003-.574 1.896-1.31 2.68l-1.822-2.004c.294-.515.45-1.066.467-1.655.038-.587-.087-1.207-.376-1.86-.278-.662-.74-1.347-1.385-2.057-.826-.908-1.679-1.552-2.56-1.933-.871-.37-1.724-.481-2.56-.33-.836.15-1.614.552-2.333 1.207-.699.636-1.172 1.332-1.417 2.09-.235.747-.213 1.547.066 2.399.289.862.865 1.768 1.729 2.717.664.73 1.342 1.287 2.033 1.669.71.383 1.398.615 2.063.697.676.071 1.288 0 1.837-.213l1.038.543c-1.469 1.089-2.983 1.531-4.541 1.328-1.548-.193-2.982-1.015-4.301-2.465Zm4.289 4.306c.324-.294.713-.61 1.168-.948.466-.347.941-.684 1.426-1.01l1.361-.925-4.214-4.632 1.331-1.21 5.495 6.04-4.93 4.485-1.637-1.8ZM256.398 87.805l6.474-4.053 1.493 2.385-6.725 4.21c-.765.479-1.506.784-2.222.916a4.599 4.599 0 0 1-2.036-.023 5.951 5.951 0 0 1-1.866-.828 8.638 8.638 0 0 1-1.632-1.45 14.123 14.123 0 0 1-1.418-1.907 15.143 15.143 0 0 1-1.141-2.181 8.969 8.969 0 0 1-.614-2.137 5.75 5.75 0 0 1 .093-2.005 4.98 4.98 0 0 1 .869-1.842c.439-.574 1.041-1.1 1.806-1.58l6.725-4.21 1.493 2.386-6.474 4.052c-.908.569-1.49 1.182-1.743 1.84-.242.65-.258 1.343-.048 2.077.229.738.595 1.508 1.096 2.309.486.777 1.004 1.418 1.553 1.923.569.51 1.198.797 1.889.864.71.071 1.52-.177 2.428-.746ZM259.081 99.101l2.173-.89 3.434 8.378-2.173.89-3.434-8.378Zm-4.051-2.02 15.104.76 1.155 2.819-10.202 11.2-1.164-2.838 9.279-9.885.513 1.253-13.53-.49-1.155-2.82ZM262.536 115.678l13.349-3.025 2.052 9.058c.234 1.032.292 1.958.175 2.78-.101.833-.405 1.531-.914 2.095-.495.56-1.21.946-2.145 1.158-.633.143-1.194.155-1.684.035a2.884 2.884 0 0 1-1.284-.686 4.61 4.61 0 0 1-.943-1.196 8.869 8.869 0 0 1-.638-1.569l.1-.326c.204.966.301 1.775.29 2.428.003.651-.154 1.171-.471 1.561-.3.4-.821.684-1.564.853l-3.177.72-.622-2.744 2.992-.678c.509-.116.881-.294 1.115-.535.249-.244.375-.613.379-1.105.007-.479-.087-1.152-.284-2.019l-1.173-5.178-4.932 1.117-.621-2.744Zm7.699 1.14 1.43 6.314c.175.77.493 1.313.955 1.628.464.328 1.013.421 1.646.277.605-.137 1.019-.448 1.242-.932.226-.47.252-1.091.077-1.861l-1.43-6.314-3.92.888ZM269.834 137.091l2.345-.136.523 9.04-2.344.136-.524-9.04Zm-3.175-3.228 14.037 5.629.176 3.041-13.289 7.276-.177-3.062 11.987-6.332.079 1.352-12.637-4.863-.176-3.041ZM76.061 164.343v-27.405h25.165c3.671 0 6.452.621 8.344 1.863 1.921 1.215 2.881 3.036 2.881 5.464 0 1.554-.382 2.782-1.144 3.686-.762.875-1.85 1.525-3.262 1.948-1.383.424-3.021.692-4.913.805l.169-.297c1.384.029 2.683.127 3.897.297 1.243.169 2.33.48 3.262.932.932.452 1.666 1.087 2.202 1.906.537.791.805 1.835.805 3.134 0 1.695-.452 3.107-1.355 4.236-.904 1.102-2.16 1.935-3.77 2.499-1.61.565-3.473.876-5.591.932h-26.69Zm5.634-4.659h20.463c1.779 0 3.148-.283 4.108-.847.96-.593 1.441-1.525 1.441-2.796 0-.932-.283-1.61-.848-2.033-.564-.424-1.313-.678-2.245-.763a25.026 25.026 0 0 0-3.007-.169H81.695v6.608Zm0-11.14h19.319c1.779 0 3.149-.255 4.109-.763.96-.536 1.44-1.44 1.44-2.711 0-1.27-.48-2.16-1.44-2.668-.96-.537-2.231-.805-3.813-.805H81.695v6.947ZM124.802 152.907v6.734h21.137v4.702h-26.77v-27.405h26.728v4.701h-21.095v6.82h62.233v4.448h-62.233Z" fill="#FC5830"/><path d="M220.254 152.907v6.734h-21.137v4.702h26.77v-27.405h-26.728v4.701h21.095v6.82h-35.56v4.448h35.56Z" fill="#FC5830"/></svg>