<svg width="48" height="48" fill="none" xmlns="http://www.w3.org/2000/svg"><rect width="48" height="48" rx="24" fill="#1C1C1A"/><path d="M24.002 18.873A5.118 5.118 0 0 0 18.876 24a5.118 5.118 0 0 0 5.126 5.127A5.118 5.118 0 0 0 29.13 24a5.118 5.118 0 0 0-5.127-5.127Zm0 8.46A3.339 3.339 0 0 1 20.67 24a3.336 3.336 0 0 1 3.333-3.333A3.336 3.336 0 0 1 27.335 24c0 1.838-1.499 3.333-3.333 3.333Zm6.532-8.67c0 .665-.535 1.196-1.195 1.196a1.196 1.196 0 1 1 1.196-1.196Zm3.396 1.214c-.076-1.601-.442-3.02-1.615-4.19-1.17-1.168-2.588-1.534-4.19-1.614-1.65-.094-6.6-.094-8.25 0-1.597.075-3.016.441-4.19 1.61-1.173 1.17-1.534 2.588-1.615 4.19-.093 1.65-.093 6.599 0 8.25.076 1.601.442 3.02 1.615 4.19 1.174 1.168 2.588 1.534 4.19 1.614 1.65.094 6.6.094 8.25 0 1.602-.075 3.02-.441 4.19-1.615 1.169-1.169 1.534-2.587 1.615-4.19.093-1.65.093-6.594 0-8.245Zm-2.133 10.017a3.375 3.375 0 0 1-1.9 1.9c-1.317.523-4.44.402-5.895.402-1.454 0-4.582.116-5.894-.401a3.374 3.374 0 0 1-1.9-1.901c-.523-1.316-.402-4.44-.402-5.894 0-1.455-.116-4.582.402-5.894a3.374 3.374 0 0 1 1.9-1.9c1.316-.523 4.44-.402 5.894-.402 1.455 0 4.582-.116 5.894.401a3.375 3.375 0 0 1 1.901 1.9c.522 1.317.402 4.44.402 5.895 0 1.454.12 4.582-.402 5.894Z" fill="#fff"/></svg>